<svg width="30" height="30" viewBox="0 0 30 30" fill="none" xmlns="http://www.w3.org/2000/svg">
<g clip-path="url(#clip0_5526_57297)">
<g opacity="0.2" filter="url(#filter0_f_5526_57297)">
<rect x="3.62872" y="3.63543" width="23.369" height="9.76057" rx="2.98016" stroke="#2388FF" stroke-width="1.46056"/>
<rect x="3.62872" y="17.1449" width="23.369" height="9.76057" rx="2.98016" stroke="#2388FF" stroke-width="1.46056"/>
<path d="M20.8161 21.6753C21.1421 21.2996 21.4376 20.9256 21.7726 20.5861C21.9284 20.4279 22.1215 20.3113 22.3341 20.2472C22.6843 20.1489 23.0487 20.328 23.2272 20.6364C23.4187 20.9669 23.43 21.3171 23.1854 21.6137C22.6544 22.2589 22.1121 22.8984 21.5472 23.5107C21.4532 23.6115 21.3395 23.6919 21.2132 23.7469C21.0868 23.8018 20.9505 23.8302 20.8127 23.8302C20.675 23.8302 20.5387 23.8018 20.4123 23.7469C20.286 23.6919 20.1723 23.6115 20.0783 23.5107C19.51 22.8984 18.9671 22.2611 18.4355 21.6154C18.1378 21.2527 18.2209 20.7172 18.5768 20.4234C18.7486 20.2804 18.9686 20.2084 19.1917 20.2221C19.4148 20.2359 19.6243 20.3344 19.7772 20.4974C20.0665 20.8059 20.3337 21.1341 20.6116 21.4527C20.6721 21.5222 20.7359 21.5883 20.8161 21.6753Z" fill="#8DC1FF"/>
<path d="M20.8106 8.17261C21.1495 7.78394 21.4546 7.42691 21.7653 7.07383C22.133 6.65691 22.6884 6.59929 23.0646 6.93429C23.4408 7.26929 23.4533 7.80258 23.0962 8.22232C22.6198 8.78159 22.1402 9.33748 21.6574 9.88998C21.1619 10.4549 20.4626 10.4583 19.9677 9.89732C19.4728 9.33635 18.9791 8.76239 18.4932 8.18729C18.1543 7.7845 18.1899 7.24161 18.5644 6.92412C18.939 6.60664 19.479 6.65578 19.8265 7.04332C20.1519 7.40657 20.4676 7.77829 20.8106 8.17261Z" fill="#8DC1FF"/>
</g>
<rect x="3.0013" y="3.09212" width="23.2917" height="9.72826" rx="2.9703" fill="#E3EFFF" stroke="#2388FF" stroke-width="1.45573"/>
<rect x="3.0013" y="16.5569" width="23.2917" height="9.72826" rx="2.9703" fill="#E3EFFF" stroke="#2388FF" stroke-width="1.45573"/>
<path d="M20.1319 21.0723C20.4568 20.6979 20.7512 20.3252 21.0851 19.9868C21.2404 19.829 21.4329 19.7128 21.6448 19.6489C21.9939 19.551 22.3571 19.7294 22.535 20.0369C22.7259 20.3663 22.7371 20.7154 22.4933 21.011C21.9641 21.654 21.4235 22.2913 20.8605 22.9017C20.7668 23.0022 20.6535 23.0823 20.5276 23.1371C20.4017 23.1918 20.2658 23.2201 20.1285 23.2201C19.9912 23.2201 19.8553 23.1918 19.7294 23.1371C19.6035 23.0823 19.4902 23.0022 19.3965 22.9017C18.8301 22.2913 18.289 21.6562 17.7592 21.0127C17.4624 20.6512 17.5452 20.1174 17.8999 19.8246C18.0712 19.682 18.2904 19.6103 18.5128 19.624C18.7352 19.6377 18.944 19.7358 19.0964 19.8984C19.3847 20.2058 19.651 20.5329 19.928 20.8505C19.9883 20.9197 20.0519 20.9856 20.1319 21.0723Z" fill="#8DC1FF"/>
<path d="M20.1263 7.61426C20.4642 7.22687 20.7682 6.87102 21.0779 6.51912C21.4444 6.10358 21.9979 6.04615 22.3729 6.38004C22.7479 6.71393 22.7603 7.24546 22.4044 7.6638C21.9296 8.22123 21.4516 8.77527 20.9703 9.32594C20.4766 9.88899 19.7795 9.89237 19.2863 9.33326C18.793 8.77415 18.3009 8.20208 17.8167 7.62889C17.4788 7.22744 17.5143 6.68634 17.8876 6.36991C18.2609 6.05347 18.7992 6.10245 19.1455 6.48871C19.4698 6.85075 19.7846 7.22124 20.1263 7.61426Z" fill="#8DC1FF"/>
</g>
<defs>
<filter id="filter0_f_5526_57297" x="0.988471" y="0.995185" width="28.65" height="28.5505" filterUnits="userSpaceOnUse" color-interpolation-filters="sRGB">
<feFlood flood-opacity="0" result="BackgroundImageFix"/>
<feBlend mode="normal" in="SourceGraphic" in2="BackgroundImageFix" result="shape"/>
<feGaussianBlur stdDeviation="0.954983" result="effect1_foregroundBlur_5526_57297"/>
</filter>
<clipPath id="clip0_5526_57297">
<rect width="30" height="30" fill="white"/>
</clipPath>
</defs>
</svg>
