<svg width="214" height="30" viewBox="0 0 214 30" fill="none" xmlns="http://www.w3.org/2000/svg">
<g clip-path="url(#clip0_7631_17920)">
<path d="M57.5596 4.45035L53.3327 16.0667H61.8169L57.5596 4.45035ZM52.5421 18.8035L51.1128 22.8175H47.2205L54.914 1.28779H60.2052L67.8683 22.8175H64.0064L62.5771 18.8035H52.5421ZM78.25 20.324C81.1997 20.324 83.3587 18.1041 83.3587 15.0936C83.3587 12.0222 81.1693 9.86319 78.25 9.86319C75.3003 9.86319 73.1716 12.0831 73.1716 15.0936C73.1716 18.1041 75.3003 20.324 78.25 20.324ZM86.6429 15.0936C86.6429 19.9286 83.3891 23.4257 78.8886 23.4257C76.5775 23.4257 74.6009 22.4222 73.2933 20.7193V29.8116H69.9787V7.36964H73.2021V9.52869C74.5401 7.79536 76.5167 6.76145 78.8886 6.76145C83.3587 6.76145 86.6429 10.2585 86.6429 15.0936ZM97.6501 20.324C100.6 20.324 102.759 18.1041 102.759 15.0936C102.759 12.0222 100.569 9.86319 97.6501 9.86319C94.7004 9.86319 92.5718 12.0831 92.5718 15.0936C92.5718 18.1041 94.7004 20.324 97.6501 20.324ZM106.043 15.0936C106.043 19.9286 102.789 23.4257 98.2887 23.4257C95.9776 23.4257 94.001 22.4222 92.6934 20.7193V29.8116H89.3788V7.36964H92.6022V9.52869C93.9402 7.79536 95.9168 6.76145 98.2887 6.76145C102.759 6.76145 106.043 10.2585 106.043 15.0936ZM108.779 0.375513H112.063V22.8175H108.779V0.375513ZM115.954 7.36964H119.238V22.8175H115.954V7.36964ZM117.596 4.87608C116.38 4.87608 115.528 4.02462 115.528 2.83866C115.528 1.68311 116.38 0.86206 117.596 0.86206C118.782 0.86206 119.634 1.68311 119.634 2.83866C119.634 4.02462 118.782 4.87608 117.596 4.87608ZM130.529 6.76145C134.452 6.76145 137.675 9.2246 138.223 12.6304L135.06 13.0257C134.574 11.0187 132.688 9.58951 130.56 9.58951C127.823 9.58951 125.664 11.9006 125.664 15.0936C125.694 18.2865 127.792 20.5976 130.56 20.5976C132.749 20.5976 134.543 19.1684 135.091 17.1918L138.253 17.5871C137.614 20.9626 134.361 23.4257 130.56 23.4257C125.816 23.4257 122.379 19.9286 122.379 15.0936C122.379 10.2585 125.816 6.76145 130.529 6.76145ZM148.658 20.476C151.608 20.476 153.736 18.2257 153.736 15.0936C153.736 11.9614 151.608 9.71114 148.658 9.71114C145.708 9.71114 143.549 11.9614 143.549 15.0936C143.549 18.1953 145.708 20.476 148.658 20.476ZM153.767 9.68074V7.36964H157.081V22.8175H153.767V20.5064C152.459 22.331 150.422 23.4257 148.019 23.4257C143.488 23.4257 140.265 19.9286 140.265 15.0936C140.265 10.2585 143.488 6.76145 148.019 6.76145C150.422 6.76145 152.459 7.85618 153.767 9.68074ZM161.882 18.469V9.95442H159.51V7.36964H162.064L162.49 3.6293H165.196V7.36964H168.967V9.95442H165.196V18.2561C165.196 19.655 166.048 20.6281 167.446 20.6281C167.872 20.6281 168.602 20.5368 169.18 20.3544V23C168.389 23.2737 167.294 23.4257 166.443 23.4257C163.676 23.4257 161.882 21.4187 161.882 18.469ZM172.351 7.36964H175.636V22.8175H172.351V7.36964ZM173.993 4.87608C172.777 4.87608 171.926 4.02462 171.926 2.83866C171.926 1.68311 172.777 0.86206 173.993 0.86206C175.179 0.86206 176.031 1.68311 176.031 2.83866C176.031 4.02462 175.179 4.87608 173.993 4.87608ZM187.139 6.76145C192.066 6.76145 195.532 10.1977 195.532 15.0936C195.532 19.9895 192.066 23.4257 187.139 23.4257C182.183 23.4257 178.746 19.9895 178.746 15.0936C178.746 10.1977 182.183 6.76145 187.139 6.76145ZM187.139 20.476C190.089 20.476 192.248 18.2257 192.248 15.0936C192.248 11.9614 190.089 9.71114 187.139 9.71114C184.159 9.71114 182.061 11.9614 182.061 15.0936C182.061 18.2257 184.159 20.476 187.139 20.476ZM198.253 7.36964H201.507V9.34623C202.602 7.73455 204.518 6.76145 206.525 6.76145C210.295 6.76145 212.759 9.5591 212.759 13.3907V22.8175H209.474V13.6339C209.474 11.3532 208.106 9.71114 205.795 9.71114C203.484 9.71114 201.568 11.4749 201.568 13.938V22.8175H198.253V7.36964Z" fill="#D4DEE4"/>
<path fill-rule="evenodd" clip-rule="evenodd" d="M15.8593 22.6333L8.56174 22.6333C4.26523 22.6333 0.782227 19.1503 0.782227 14.8538C0.782227 11.0647 3.67007 7.95004 7.36488 7.59078C7.62539 3.79711 10.7853 0.800514 14.6451 0.800514H14.8861C16.9624 0.800514 18.8427 1.63992 20.206 2.9979C22.0339 1.61846 24.3092 0.800514 26.7757 0.800514H27.3238C33.05 0.800514 37.6921 5.44256 37.6921 11.1688C37.6921 17.5005 32.5592 22.6333 26.2275 22.6333H15.8593Z" fill="#D4DEE4"/>
</g>
<defs>
<clipPath id="clip0_7631_17920">
<rect width="214" height="30" fill="white"/>
</clipPath>
</defs>
</svg>
