<svg width="33" height="30" viewBox="0 0 33 30" fill="none" xmlns="http://www.w3.org/2000/svg">
<g clip-path="url(#clip0_5538_57159)">
<g opacity="0.2" filter="url(#filter0_f_5538_57159)">
<path d="M30.0331 19.114C30.2581 18.726 30.4861 18.344 30.7231 17.9695L30.7881 17.8623L30.8213 17.817C30.8832 17.7234 30.9421 17.6282 31.0055 17.5361C31.4494 16.8853 31.4766 16.3418 31.0221 15.6819C30.5329 14.9707 30.1161 14.2127 29.6843 13.4759L28.3767 11.2623H3.27966C2.24081 11.2623 1.97656 11.522 1.97656 12.5427C1.97656 15.1841 1.97656 17.8276 1.97656 20.473C1.97656 21.7066 2.18796 21.9226 3.40347 21.9226C10.3493 21.9226 17.2905 21.9226 24.2273 21.9226H28.3419L30.0331 19.114ZM18.7779 19.7467C18.565 20.1287 18.3098 20.2525 17.8809 20.248C15.6462 20.2284 13.41 20.239 11.1752 20.239C8.88915 20.239 6.60307 20.2299 4.31851 20.2465C3.86552 20.2465 3.63903 20.1921 3.64658 19.6425C3.67979 17.6071 3.67375 15.5732 3.64658 13.5378C3.64658 13.0757 3.78096 12.9338 4.24301 12.9338C8.81415 12.9489 13.3853 12.9489 17.9564 12.9338C18.1172 12.918 18.2789 12.9529 18.4189 13.0336C18.5589 13.1143 18.6701 13.2367 18.7371 13.3838C19.2736 14.3199 19.8308 15.2435 20.4086 16.1545C20.5073 16.2803 20.561 16.4356 20.561 16.5954C20.561 16.7553 20.5073 16.9106 20.4086 17.0363C19.8424 17.9257 19.2928 18.8256 18.7779 19.7452V19.7467ZM26.9392 20.248C24.8252 20.2299 22.7204 20.239 20.4282 20.239C21.0534 19.1941 21.5849 18.2609 22.1602 17.358C22.5014 16.8234 22.4939 16.3553 22.1602 15.8223C21.5864 14.9164 21.0594 13.9892 20.4418 12.9534C22.7581 12.9534 24.9324 12.9534 27.1083 12.9534C27.4103 12.9534 27.5492 13.1286 27.6836 13.3551C28.2483 14.3063 28.81 15.2591 29.3959 16.1953C29.4858 16.3133 29.5344 16.4576 29.5344 16.606C29.5344 16.7544 29.4858 16.8987 29.3959 17.0167C28.8231 17.9338 28.2694 18.8604 27.7349 19.7965C27.6653 19.9448 27.5513 20.0677 27.4088 20.1484C27.2662 20.229 27.1021 20.2633 26.9392 20.2465V20.248Z" fill="#2388FF"/>
</g>
<path d="M10.8472 19.2573C8.56111 19.2573 6.27504 19.2482 3.99047 19.2648C3.53749 19.2648 3.31099 19.2105 3.31854 18.6609C3.35176 16.6254 3.34572 14.5915 3.31854 12.5561C3.31854 12.0941 3.45293 11.9521 3.91498 11.9521C8.48612 11.9672 13.0573 11.9672 17.6284 11.9521C17.7894 11.9365 17.9512 11.9716 18.0912 12.0526C18.2312 12.1335 18.3423 12.2563 18.4091 12.4036C18.9456 13.3398 19.5028 14.2634 20.0806 15.1744C20.1793 15.3001 20.2329 15.4554 20.2329 15.6153C20.2329 15.7752 20.1793 15.9304 20.0806 16.0562C19.5159 16.9455 18.9662 17.8455 18.4513 18.765C18.2384 19.1471 17.9832 19.2709 17.5544 19.2663C15.3182 19.2467 13.0819 19.2573 10.8472 19.2573Z" fill="#E3EFFF"/>
<path d="M20.0977 19.2573C20.7228 18.2124 21.2543 17.2793 21.8296 16.3763C22.1708 15.8418 22.1633 15.3737 21.8296 14.8407C21.2558 13.9347 20.7288 13.0076 20.1112 11.9718C22.4275 11.9718 24.6019 11.9718 26.7777 11.9718C27.0797 11.9718 27.2186 12.147 27.353 12.3735C27.9177 13.3247 28.4794 14.2775 29.0653 15.2137C29.1552 15.3317 29.2039 15.476 29.2039 15.6244C29.2039 15.7728 29.1552 15.917 29.0653 16.0351C28.4925 16.9521 27.9389 17.8787 27.4043 18.8149C27.3363 18.9606 27.2253 19.0821 27.0864 19.163C26.9474 19.244 26.787 19.2806 26.6267 19.2679C24.4992 19.2483 22.3898 19.2573 20.0977 19.2573Z" fill="#C3DDFF"/>
<path d="M29.705 18.1339C29.9299 17.7459 30.1579 17.3639 30.395 16.9894L30.4599 16.8822L30.4931 16.8369C30.5551 16.7433 30.6139 16.6481 30.6774 16.556C31.1213 15.9052 31.1485 15.3617 30.694 14.7018C30.2047 13.9906 29.788 13.2326 29.3562 12.4958L28.0485 10.2822H2.95153C1.91268 10.2822 1.64844 10.5419 1.64844 11.5626C1.64844 14.204 1.64844 16.8475 1.64844 19.4929C1.64844 20.7265 1.85983 20.9424 3.07535 20.9424C10.0211 20.9424 16.9624 20.9424 23.8992 20.9424H28.0138L29.705 18.1339ZM18.4497 18.7666C18.2368 19.1486 17.9816 19.2724 17.5528 19.2679C15.3181 19.2483 13.0818 19.2588 10.8471 19.2588C8.56102 19.2588 6.27495 19.2498 3.99038 19.2664C3.53739 19.2664 3.3109 19.212 3.31845 18.6624C3.35167 16.627 3.34563 14.5931 3.31845 12.5577C3.31845 12.0956 3.45284 11.9537 3.91488 11.9537C8.48603 11.9688 13.0572 11.9688 17.6283 11.9537C17.7891 11.9379 17.9508 11.9728 18.0908 12.0535C18.2308 12.1342 18.342 12.2566 18.409 12.4037C18.9455 13.3398 19.5027 14.2634 20.0805 15.1744C20.1792 15.3002 20.2328 15.4554 20.2328 15.6153C20.2328 15.7752 20.1792 15.9305 20.0805 16.0562C19.5143 16.9456 18.9646 17.8455 18.4497 18.7651V18.7666ZM26.6111 19.2679C24.4971 19.2498 22.3922 19.2588 20.1001 19.2588C20.7252 18.214 21.2567 17.2808 21.832 16.3779C22.1733 15.8433 22.1657 15.3752 21.832 14.8422C21.2583 13.9363 20.7313 13.0091 20.1137 11.9733C22.43 11.9733 24.6043 11.9733 26.7802 11.9733C27.0822 11.9733 27.2211 12.1485 27.3555 12.375C27.9202 13.3262 28.4819 14.279 29.0677 15.2152C29.1576 15.3332 29.2063 15.4775 29.2063 15.6259C29.2063 15.7743 29.1576 15.9186 29.0677 16.0366C28.495 16.9537 27.9413 17.8803 27.4068 18.8164C27.3372 18.9647 27.2232 19.0876 27.0806 19.1683C26.9381 19.2489 26.774 19.2832 26.6111 19.2664V19.2679Z" fill="#2388FF"/>
</g>
<defs>
<filter id="filter0_f_5538_57159" x="-0.0234375" y="9.26227" width="33.375" height="14.6603" filterUnits="userSpaceOnUse" color-interpolation-filters="sRGB">
<feFlood flood-opacity="0" result="BackgroundImageFix"/>
<feBlend mode="normal" in="SourceGraphic" in2="BackgroundImageFix" result="shape"/>
<feGaussianBlur stdDeviation="1" result="effect1_foregroundBlur_5538_57159"/>
</filter>
<clipPath id="clip0_5538_57159">
<rect width="33" height="30" fill="white"/>
</clipPath>
</defs>
</svg>
