<svg width="166" height="36" viewBox="0 0 166 36" fill="none" xmlns="http://www.w3.org/2000/svg">
<g clip-path="url(#clip0_7631_22219)">
<path d="M50.9538 23.0122C50.9538 21.0356 49.0684 19.6063 46.4228 19.6063H40.8275V26.4484H46.4228C49.0684 26.4484 50.9538 24.9888 50.9538 23.0122ZM46.362 10.9397H40.8275V16.7479H46.362C48.7035 16.7479 50.3456 15.5619 50.3456 13.859C50.3456 12.1561 48.7035 10.9397 46.362 10.9397ZM47.031 29.4589H37.1784V7.92918H46.9093C51.0754 7.92918 54.0251 10.3619 54.0251 13.7069C54.0251 15.8052 52.6871 17.6297 50.8321 18.1467C53.052 18.694 54.6333 20.8227 54.6333 23.3162C54.6333 26.9045 51.4707 29.4589 47.031 29.4589ZM72.1618 29.4589H68.908V27.4823C67.8437 29.094 65.8975 30.0671 63.9209 30.0671C60.1198 30.0671 57.6566 27.2694 57.6566 23.4379V14.011H60.9712V23.1946C60.9712 25.4753 62.3092 27.1174 64.6507 27.1174C66.9314 27.1174 68.8776 25.3537 68.8776 22.8905V14.011H72.1618V29.4589ZM88.8969 24.8063C88.8969 27.8776 86.0992 30.0975 82.1764 30.0975C78.1016 30.0975 75.1519 27.6344 75.1519 24.2285H78.1928C78.1928 26.0531 79.8653 27.3911 82.1764 27.3911C84.2442 27.3911 85.7343 26.4484 85.7039 25.1712C85.7039 23.5595 83.3016 23.1642 81.7507 22.9513C78.132 22.404 75.3952 21.9478 75.3952 18.2683C75.3952 15.4403 78.1016 13.3724 81.5986 13.3724C85.5823 13.3724 88.5015 15.5923 88.5015 18.6636H85.4302C85.3998 17.1432 83.7881 16.0788 81.5682 16.0788C79.8957 16.0788 78.4969 16.9911 78.4969 18.2379C78.4969 19.3935 79.6525 19.7584 82.146 20.1841C85.0957 20.6706 88.8969 21.3092 88.8969 24.8063ZM92.1383 14.011H95.4225V29.4589H92.1383V14.011ZM93.7804 11.5175C92.564 11.5175 91.7126 10.666 91.7126 9.48005C91.7126 8.3245 92.564 7.50345 93.7804 7.50345C94.9663 7.50345 95.8178 8.3245 95.8178 9.48005C95.8178 10.666 94.9663 11.5175 93.7804 11.5175ZM99.2935 14.011H102.547V15.9876C103.642 14.3759 105.558 13.4028 107.565 13.4028C111.336 13.4028 113.799 16.2005 113.799 20.032V29.4589H110.514V20.2753C110.514 17.9946 109.146 16.3525 106.835 16.3525C104.524 16.3525 102.608 18.1163 102.608 20.5794V29.4589H99.2935V14.011ZM119.678 20.3057H129.287C128.922 17.873 126.976 16.1701 124.421 16.1701C121.928 16.1701 120.103 17.8426 119.678 20.3057ZM116.241 21.5525C116.241 16.8087 119.708 13.4028 124.513 13.4028C129.317 13.4028 132.723 16.8087 132.723 21.5829C132.723 21.9478 132.693 22.404 132.662 22.7689L119.647 22.7385C120.043 25.4753 121.958 27.2999 124.482 27.2999C126.55 27.2999 128.466 26.0835 129.044 24.3806L132.145 24.8367C131.264 27.8776 128.071 30.0671 124.543 30.0671C119.708 30.0671 116.241 26.5092 116.241 21.5525ZM148.709 24.8063C148.709 27.8776 145.912 30.0975 141.989 30.0975C137.914 30.0975 134.964 27.6344 134.964 24.2285H138.005C138.005 26.0531 139.678 27.3911 141.989 27.3911C144.057 27.3911 145.547 26.4484 145.516 25.1712C145.516 23.5595 143.114 23.1642 141.563 22.9513C137.944 22.404 135.207 21.9478 135.207 18.2683C135.207 15.4403 137.914 13.3724 141.411 13.3724C145.395 13.3724 148.314 15.5923 148.314 18.6636H145.243C145.212 17.1432 143.6 16.0788 141.381 16.0788C139.708 16.0788 138.309 16.9911 138.309 18.2379C138.309 19.3935 139.465 19.7584 141.958 20.1841C144.908 20.6706 148.709 21.3092 148.709 24.8063ZM164.783 24.8063C164.783 27.8776 161.986 30.0975 158.063 30.0975C153.988 30.0975 151.038 27.6344 151.038 24.2285H154.079C154.079 26.0531 155.752 27.3911 158.063 27.3911C160.131 27.3911 161.621 26.4484 161.59 25.1712C161.59 23.5595 159.188 23.1642 157.637 22.9513C154.018 22.404 151.282 21.9478 151.282 18.2683C151.282 15.4403 153.988 13.3724 157.485 13.3724C161.469 13.3724 164.388 15.5923 164.388 18.6636H161.317C161.286 17.1432 159.675 16.0788 157.455 16.0788C155.782 16.0788 154.383 16.9911 154.383 18.2379C154.383 19.3935 155.539 19.7584 158.032 20.1841C160.982 20.6706 164.783 21.3092 164.783 24.8063Z" fill="#697B86"/>
<path fill-rule="evenodd" clip-rule="evenodd" d="M12.6253 13.4699L17.3572 18.2018L12.8517 22.7072L8.11989 17.9754L12.6253 13.4699ZM7.77386 8.61844L4.80716 5.65175C4.63794 5.48252 4.63794 5.20816 4.80716 5.03893L9.04584 0.800258C9.21506 0.631034 9.48943 0.631034 9.65865 0.800258L24.1493 15.2909C25.7569 16.8985 25.7569 19.505 24.1493 21.1127L17.7032 27.5587L20.6699 30.5254C20.8391 30.6947 20.8391 30.969 20.6699 31.1382L16.4313 35.3769C16.262 35.5461 15.9877 35.5461 15.8184 35.3769L1.3278 20.8863C-0.279839 19.2786 -0.279841 16.6721 1.3278 15.0645L7.77386 8.61844Z" fill="#697B86"/>
</g>
<defs>
<clipPath id="clip0_7631_22219">
<rect width="166" height="36" fill="white"/>
</clipPath>
</defs>
</svg>
