<svg width="190" height="36" viewBox="0 0 190 36" fill="none" xmlns="http://www.w3.org/2000/svg">
<g clip-path="url(#clip0_7631_22211)">
<path d="M57.9883 22.5977C61.1509 22.5977 64.0093 20.4691 64.8304 17.5194L68.297 18.0972C67.3239 22.5369 62.9754 25.7603 57.9579 25.7603C51.4199 25.7603 46.6761 20.9252 46.7065 14.2352C46.7065 7.54518 51.4199 2.71011 57.9579 2.71011C62.9754 2.71011 67.3239 6.08554 68.297 10.7077L64.8 11.1335C64.0701 8.09254 61.2117 5.90308 57.9883 5.90308C53.5181 5.90308 50.3556 9.36973 50.3556 14.2352C50.386 19.1007 53.5485 22.5977 57.9883 22.5977ZM78.9469 8.944C83.8732 8.944 87.3398 12.3802 87.3398 17.2761C87.3398 22.172 83.8732 25.6083 78.9469 25.6083C73.9902 25.6083 70.554 22.172 70.554 17.2761C70.554 12.3802 73.9902 8.944 78.9469 8.944ZM78.9469 22.6586C81.8966 22.6586 84.0556 20.4083 84.0556 17.2761C84.0556 14.144 81.8966 11.8937 78.9469 11.8937C75.9668 11.8937 73.8686 14.144 73.8686 17.2761C73.8686 20.4083 75.9668 22.6586 78.9469 22.6586ZM93.3756 25.0001H90.061V9.55219H93.254V11.3159C94.2271 9.82587 95.8387 8.944 97.6937 8.944C100.096 8.944 102.103 10.0996 103.015 11.8633C104.08 10.0996 106.026 8.97441 108.246 8.97441C111.864 8.97441 114.419 11.7417 114.419 15.6644V25.0001H111.135V15.9381C111.135 13.5966 109.645 11.9241 107.546 11.8937C105.387 11.8937 103.836 13.5966 103.836 15.9381V25.0001H100.522V15.9381C100.522 13.5054 99.1534 11.8937 97.0247 11.8937C94.8352 11.8937 93.3756 13.5054 93.3756 15.9381V25.0001ZM125.84 22.5065C128.789 22.5065 130.948 20.2866 130.948 17.2761C130.948 14.2048 128.759 12.0457 125.84 12.0457C122.89 12.0457 120.761 14.2656 120.761 17.2761C120.761 20.2866 122.89 22.5065 125.84 22.5065ZM134.233 17.2761C134.233 22.1112 130.979 25.6083 126.478 25.6083C124.167 25.6083 122.19 24.6048 120.883 22.9018V31.9942H117.568V9.55219H120.792V11.7112C122.13 9.97792 124.106 8.944 126.478 8.944C130.948 8.944 134.233 12.4411 134.233 17.2761ZM144.632 22.6586C147.581 22.6586 149.71 20.4083 149.71 17.2761C149.71 14.144 147.581 11.8937 144.632 11.8937C141.682 11.8937 139.523 14.144 139.523 17.2761C139.523 20.3779 141.682 22.6586 144.632 22.6586ZM149.74 11.8633V9.55219H153.055V25.0001H149.74V22.689C148.433 24.5135 146.395 25.6083 143.993 25.6083C139.462 25.6083 136.239 22.1112 136.239 17.2761C136.239 12.4411 139.462 8.944 143.993 8.944C146.395 8.944 148.433 10.0387 149.74 11.8633ZM156.517 9.55219H159.771V11.5288C160.866 9.9171 162.781 8.944 164.788 8.944C168.559 8.944 171.022 11.7417 171.022 15.5732V25.0001H167.738V15.8165C167.738 13.5358 166.37 11.8937 164.059 11.8937C161.747 11.8937 159.832 13.6574 159.832 16.1206V25.0001H156.517V9.55219ZM174.195 31.3556V28.6796C174.864 28.9229 175.624 29.1053 176.232 29.1053C178.361 29.1053 178.999 26.9767 179.79 25.0609L172.826 9.55219H176.445L181.28 20.9556L185.477 9.55219H188.943L182.892 25.365C181.554 28.9229 180.185 31.8726 176.901 31.8726C176.019 31.8726 174.985 31.6901 174.195 31.3556Z" fill="#697B86"/>
<path fill-rule="evenodd" clip-rule="evenodd" d="M14.147 0.181961C12.7537 0.181961 11.6242 1.31146 11.6242 2.70476V10.841H3.33903C1.94573 10.841 0.816232 11.9705 0.816232 13.3638V32.5475C0.816232 33.9408 1.94573 35.0703 3.33903 35.0703H22.2963C23.6896 35.0703 24.8191 33.9408 24.8191 32.5475V24.4113H33.1043C34.4977 24.4113 35.6271 23.2818 35.6271 21.8885V2.70476C35.6271 1.31146 34.4977 0.181961 33.1043 0.181961H14.147ZM24.8191 24.4113V13.3638C24.8191 11.9705 23.6896 10.841 22.2963 10.841H11.6242V21.8885C11.6242 23.2818 12.7537 24.4113 14.147 24.4113H24.8191Z" fill="#697B86"/>
</g>
<defs>
<clipPath id="clip0_7631_22211">
<rect width="190" height="36" fill="white"/>
</clipPath>
</defs>
</svg>
