<svg width="569" height="463" viewBox="0 0 569 463" fill="none" xmlns="http://www.w3.org/2000/svg">
<g opacity="0.2">
<path d="M622.486 336.766L544.742 336.766L466.998 273.978L466.998 211.19L544.742 211.19L622.486 273.978L622.486 336.766Z" stroke="#D4DEE4"/>
<path d="M466.999 336.766L389.255 336.766L311.511 273.978L311.511 211.19L389.255 211.19L466.999 273.978L466.999 336.766Z" stroke="#D4DEE4"/>
<path d="M622.486 462.343L544.742 462.343L466.998 399.555L466.998 336.766L544.742 336.766L622.486 399.555L622.486 462.343Z" stroke="#D4DEE4"/>
<path d="M466.999 462.343L389.255 462.343L311.511 399.555L311.511 336.766L389.255 336.766L466.999 399.555L466.999 462.343Z" stroke="#D4DEE4"/>
<path d="M622.486 85.6128L544.742 85.6128L466.998 22.8246L466.998 -39.9636L544.742 -39.9636L622.486 22.8246L622.486 85.6128Z" stroke="#D4DEE4"/>
<path d="M466.999 85.6128L389.255 85.6128L311.511 22.8246L311.511 -39.9636L389.255 -39.9636L466.999 22.8246L466.999 85.6128Z" stroke="#D4DEE4"/>
<path d="M622.486 211.189L544.742 211.189L466.998 148.401L466.998 85.6131L544.742 85.6131L622.486 148.401L622.486 211.189Z" stroke="#D4DEE4"/>
<path d="M466.999 211.189L389.255 211.189L311.511 148.401L311.511 85.6131L389.255 85.6131L466.999 148.401L466.999 211.189Z" stroke="#D4DEE4"/>
<path d="M311.514 85.6128L233.77 85.6128L156.026 22.8246L156.026 -39.9636L233.77 -39.9636L311.514 22.8246L311.514 85.6128Z" stroke="#D4DEE4"/>
<path d="M156.027 85.6128L78.2834 85.6128L0.539548 22.8246L0.53954 -39.9636L78.2834 -39.9636L156.027 22.8246L156.027 85.6128Z" stroke="#D4DEE4"/>
<path d="M311.514 211.189L233.77 211.189L156.026 148.401L156.026 85.6131L233.77 85.6131L311.514 148.401L311.514 211.189Z" stroke="#D4DEE4"/>
<path d="M156.027 211.189L78.2834 211.189L0.539548 148.401L0.53954 85.6131L78.2834 85.6131L156.027 148.401L156.027 211.189Z" stroke="#D4DEE4"/>
</g>
</svg>
