<svg width="626" height="434" viewBox="0 0 626 434" fill="none" xmlns="http://www.w3.org/2000/svg">
<g opacity="0.2">
<path d="M3.53383 126.907L81.2777 126.907L159.021 189.695L159.021 252.484L81.2776 252.484L3.53382 189.695L3.53383 126.907Z" stroke="#D4DEE4"/>
<path d="M159.021 126.907L236.764 126.907L314.508 189.695L314.508 252.484L236.764 252.484L159.021 189.695L159.021 126.907Z" stroke="#D4DEE4"/>
<path d="M3.53383 1.33055L81.2777 1.33056L159.021 64.1188L159.021 126.907L81.2776 126.907L3.53382 64.1187L3.53383 1.33055Z" stroke="#D4DEE4"/>
<path d="M159.021 1.33055L236.764 1.33056L314.508 64.1188L314.508 126.907L236.764 126.907L159.021 64.1187L159.021 1.33055Z" stroke="#D4DEE4"/>
<path d="M-151.954 126.907L-74.2105 126.907L3.53332 189.695L3.53331 252.484L-74.2105 252.484L-151.954 189.695L-151.954 126.907Z" stroke="#D4DEE4"/>
<path d="M-151.954 1.33055L-74.2105 1.33056L3.53332 64.1188L3.53331 126.907L-74.2105 126.907L-151.954 64.1187L-151.954 1.33055Z" stroke="#D4DEE4"/>
<path d="M-151.954 378.06L-74.2105 378.06L3.53332 440.848L3.53331 503.636L-74.2105 503.636L-151.954 440.848L-151.954 378.06Z" stroke="#D4DEE4"/>
<path d="M-151.954 252.483L-74.2105 252.483L3.53332 315.272L3.53331 378.06L-74.2105 378.06L-151.954 315.272L-151.954 252.483Z" stroke="#D4DEE4"/>
<path d="M3.53383 378.06L81.2777 378.06L159.021 440.848L159.021 503.636L81.2776 503.636L3.53382 440.848L3.53383 378.06Z" stroke="#D4DEE4"/>
<path d="M159.021 378.06L236.764 378.06L314.508 440.848L314.508 503.636L236.764 503.636L159.021 440.848L159.021 378.06Z" stroke="#D4DEE4"/>
<path d="M3.53383 252.483L81.2777 252.483L159.021 315.272L159.021 378.06L81.2776 378.06L3.53382 315.272L3.53383 252.483Z" stroke="#D4DEE4"/>
<path d="M159.021 252.483L236.764 252.483L314.508 315.272L314.508 378.06L236.764 378.06L159.021 315.272L159.021 252.483Z" stroke="#D4DEE4"/>
<path d="M314.506 378.06L392.25 378.06L469.993 440.848L469.993 503.636L392.25 503.636L314.506 440.848L314.506 378.06Z" stroke="#D4DEE4"/>
<path d="M469.993 378.06L547.736 378.06L625.48 440.848L625.48 503.636L547.736 503.636L469.993 440.848L469.993 378.06Z" stroke="#D4DEE4"/>
<path d="M314.506 252.483L392.25 252.483L469.993 315.272L469.993 378.06L392.25 378.06L314.506 315.272L314.506 252.483Z" stroke="#D4DEE4"/>
<path d="M469.993 252.483L547.736 252.483L625.48 315.272L625.48 378.06L547.736 378.06L469.993 315.272L469.993 252.483Z" stroke="#D4DEE4"/>
</g>
</svg>
