<svg width="603" height="324" viewBox="0 0 603 324" fill="none" xmlns="http://www.w3.org/2000/svg">
<g opacity="0.2">
<path d="M623.025 126.468H545.281L467.537 189.256L467.537 252.045H545.281L623.025 189.256V126.468Z" stroke="#D4DEE4"/>
<path d="M467.538 126.468H389.795L312.051 189.256L312.051 252.045H389.795L467.538 189.256V126.468Z" stroke="#D4DEE4"/>
<path d="M623.025 0.891357H545.281L467.537 63.6795L467.537 126.468H545.281L623.025 63.6795V0.891357Z" stroke="#D4DEE4"/>
<path d="M467.538 0.891357H389.795L312.051 63.6795L312.051 126.468H389.795L467.538 63.6795V0.891357Z" stroke="#D4DEE4"/>
<path d="M623.025 252.044H545.281L467.537 314.833L467.537 377.621H545.281L623.025 314.833V252.044Z" stroke="#D4DEE4"/>
<path d="M467.538 252.044H389.795L312.051 314.833L312.051 377.621H389.795L467.538 314.833V252.044Z" stroke="#D4DEE4"/>
<path d="M312.052 252.044H234.308L156.564 314.833L156.564 377.621H234.308L312.052 314.833V252.044Z" stroke="#D4DEE4"/>
<path d="M156.566 252.044H78.822L1.07813 314.833L1.07812 377.621H78.822L156.566 314.833V252.044Z" stroke="#D4DEE4"/>
</g>
</svg>
