<svg width="615" height="467" viewBox="0 0 615 467" fill="none" xmlns="http://www.w3.org/2000/svg">
<g opacity="0.2">
<path d="M622.986 126.291H545.242L467.498 189.079L467.498 251.868H545.242L622.986 189.079V126.291Z" stroke="#D4DEE4"/>
<path d="M467.499 126.291H389.756L312.012 189.079L312.012 251.868H389.756L467.499 189.079V126.291Z" stroke="#D4DEE4"/>
<path d="M622.986 0.714355H545.242L467.498 63.5025L467.498 126.291H545.242L622.986 63.5025V0.714355Z" stroke="#D4DEE4"/>
<path d="M467.499 0.714355H389.756L312.012 63.5025L312.012 126.291H389.756L467.499 63.5025V0.714355Z" stroke="#D4DEE4"/>
<path d="M622.986 377.444H545.242L467.498 440.232L467.498 503.02H545.242L622.986 440.232V377.444Z" stroke="#D4DEE4"/>
<path d="M467.499 377.444H389.756L312.012 440.232L312.012 503.02H389.756L467.499 440.232V377.444Z" stroke="#D4DEE4"/>
<path d="M622.986 251.867H545.242L467.498 314.655L467.498 377.444H545.242L622.986 314.655V251.867Z" stroke="#D4DEE4"/>
<path d="M467.499 251.867H389.756L312.012 314.655L312.012 377.444H389.756L467.499 314.655V251.867Z" stroke="#D4DEE4"/>
<path d="M312.013 377.444H234.269L156.525 440.232L156.525 503.02H234.269L312.013 440.232V377.444Z" stroke="#D4DEE4"/>
<path d="M156.527 377.444H78.7829L1.03907 440.232L1.03906 503.02H78.7829L156.527 440.232V377.444Z" stroke="#D4DEE4"/>
<path d="M312.013 251.867H234.269L156.525 314.655L156.525 377.444H234.269L312.013 314.655V251.867Z" stroke="#D4DEE4"/>
<path d="M156.527 251.867H78.7829L1.03907 314.655L1.03906 377.444H78.7829L156.527 314.655V251.867Z" stroke="#D4DEE4"/>
</g>
</svg>
