<svg width="92" height="91" viewBox="0 0 92 91" fill="none" xmlns="http://www.w3.org/2000/svg">
<g clip-path="url(#clip0_5505_57407)">
<circle cx="44.3076" cy="45.0752" r="45" fill="#EEF9F5"/>
<mask id="mask0_5505_57407" style="mask-type:alpha" maskUnits="userSpaceOnUse" x="-1" y="-1" width="91" height="91">
<rect x="-0.402344" y="-0.0751953" width="90" height="90" rx="45" fill="#E3EFFF"/>
</mask>
<g mask="url(#mask0_5505_57407)">
<line x1="61.8947" y1="-3.80746" x2="61.8947" y2="97.181" stroke="#ADECBB" stroke-width="1.02564"/>
<line x1="78.6534" y1="-3.80743" x2="78.6535" y2="97.181" stroke="#ADECBB" stroke-width="1.02564"/>
<line x1="45.1349" y1="-3.80743" x2="45.1349" y2="97.181" stroke="#ADECBB" stroke-width="1.02564"/>
<line x1="11.6163" y1="-3.80743" x2="11.6163" y2="97.181" stroke="#ADECBB" stroke-width="1.02564"/>
<line x1="28.3761" y1="-3.80746" x2="28.3761" y2="97.181" stroke="#ADECBB" stroke-width="1.02564"/>
<line x1="-5.85938" y1="29.4103" x2="95.1049" y2="29.4103" stroke="#ADECBB" stroke-width="1.02564"/>
<line x1="-5.85938" y1="12.647" x2="95.1049" y2="12.647" stroke="#ADECBB" stroke-width="1.02564"/>
<line x1="-5.85938" y1="46.1742" x2="95.1049" y2="46.1742" stroke="#ADECBB" stroke-width="1.02564"/>
<line x1="-5.85938" y1="79.7009" x2="95.1049" y2="79.7009" stroke="#ADECBB" stroke-width="1.02564"/>
<line x1="-5.85938" y1="62.9375" x2="95.1049" y2="62.9375" stroke="#ADECBB" stroke-width="1.02564"/>
<rect x="-0.944336" y="-0.710693" width="90.7854" height="90.7854" rx="10.7692" fill="url(#paint0_radial_5505_57407)"/>
</g>
<path d="M15.5264 11.5696C15.5264 9.91276 16.8695 8.56961 18.5264 8.56961H57.6767L63.9498 16.0771L73.0888 24.0251V78.5806C73.0888 80.2374 71.7456 81.5806 70.0888 81.5806H18.5264C16.8695 81.5806 15.5264 80.2374 15.5264 78.5806V11.5696Z" fill="white" stroke="#6D758F" stroke-width="1.2"/>
<path d="M57.7402 19.9174V8.56961L73.088 23.9174H61.7402C59.5311 23.9174 57.7402 22.1266 57.7402 19.9174Z" fill="#F1F3F7" stroke="#6D758F" stroke-width="1.2" stroke-linecap="round" stroke-linejoin="round"/>
<g filter="url(#filter0_d_5505_57407)">
<circle cx="44.3078" cy="46.6546" r="12.9328" fill="#EEF9F5"/>
<circle cx="44.3078" cy="46.6546" r="12.3328" stroke="#63DE77" stroke-width="1.2"/>
</g>
<path d="M48.3945 47.4328L44.3075 51.7144L40.2205 47.4328" stroke="#63DE77" stroke-width="1.2" stroke-linecap="round" stroke-linejoin="round"/>
<path d="M44.3086 51.7144L44.3086 41.5942" stroke="#63DE77" stroke-width="1.2" stroke-linecap="round" stroke-linejoin="round"/>
<path d="M54.6237 86.0267V86.0265L54.6108 86.0268C49.2115 86.1434 44.9086 81.8336 44.9086 76.6416C44.9086 71.4067 49.2504 67.0669 54.7178 67.3383L55.1784 67.3612L55.319 66.922C60.1175 51.9317 82.0806 54.0485 83.942 69.5339L83.9979 69.9995L84.4633 70.0576C88.4515 70.5562 91.4471 73.9295 91.4471 78.0445C91.4471 82.4562 87.8804 86.0267 83.4236 86.0267H83.4232H83.4227H83.4221H83.4216H83.4211H83.4205H83.4199H83.4193H83.4187H83.4181H83.4174H83.4168H83.4161H83.4154H83.4147H83.414H83.4132H83.4125H83.4117H83.4109H83.4101H83.4093H83.4084H83.4076H83.4067H83.4058H83.4049H83.4039H83.403H83.402H83.401H83.4H83.399H83.3979H83.3968H83.3957H83.3946H83.3935H83.3923H83.3911H83.3899H83.3887H83.3875H83.3862H83.3849H83.3836H83.3823H83.381H83.3796H83.3782H83.3768H83.3753H83.3739H83.3724H83.3709H83.3693H83.3678H83.3662H83.3646H83.363H83.3613H83.3596H83.3579H83.3562H83.3544H83.3527H83.3509H83.349H83.3472H83.3453H83.3434H83.3414H83.3395H83.3375H83.3355H83.3334H83.3314H83.3293H83.3272H83.325H83.3228H83.3206H83.3184H83.3161H83.3138H83.3115H83.3091H83.3068H83.3044H83.3019H83.2994H83.297H83.2944H83.2919H83.2893H83.2867H83.284H83.2813H83.2786H83.2759H83.2731H83.2703H83.2675H83.2646H83.2617H83.2588H83.2558H83.2528H83.2498H83.2467H83.2436H83.2405H83.2373H83.2341H83.2309H83.2276H83.2243H83.221H83.2176H83.2142H83.2108H83.2073H83.2038H83.2003H83.1967H83.1931H83.1894H83.1858H83.182H83.1783H83.1745H83.1707H83.1668H83.1629H83.1589H83.155H83.151H83.1469H83.1428H83.1387H83.1345H83.1303H83.1261H83.1218H83.1175H83.1131H83.1087H83.1043H83.0998H83.0953H83.0907H83.0861H83.0815H83.0768H83.0721H83.0673H83.0625H83.0577H83.0528H83.0479H83.0429H83.0379H83.0328H83.0277H83.0226H83.0174H83.0122H83.007H83.0016H82.9963H82.9909H82.9855H82.98H82.9745H82.9689H82.9633H82.9576H82.9519H82.9462H82.9404H82.9346H82.9287H82.9228H82.9168H82.9108H82.9047H82.8986H82.8924H82.8862H82.88H82.8737H82.8674H82.861H82.8545H82.848H82.8415H82.8349H82.8283H82.8216H82.8149H82.8081H82.8013H82.7945H82.7875H82.7806H82.7735H82.7665H82.7594H82.7522H82.745H82.7377H82.7304H82.723H82.7156H82.7082H82.7006H82.6931H82.6854H82.6778H82.67H82.6623H82.6544H82.6466H82.6386H82.6306H82.6226H82.6145H82.6064H82.5982H82.5899H82.5816H82.5732H82.5648H82.5564H82.5478H82.5393H82.5306H82.5219H82.5132H82.5044H82.4956H82.4866H82.4777H82.4687H82.4596H82.4505H82.4413H82.432H82.4227H82.4134H82.404H82.3945H82.385H82.3754H82.3657H82.356H82.3463H82.3365H82.3266H82.3166H82.3066H82.2966H82.2865H82.2763H82.2661H82.2558H82.2454H82.235H82.2246H82.214H82.2034H82.1928H82.1821H82.1713H82.1605H82.1496H82.1386H82.1276H82.1165H82.1054H82.0942H82.0829H82.0716H82.0602H82.0487H82.0372H82.0256H82.014H82.0023H81.9905H81.9786H81.9667H81.9548H81.9428H81.9307H81.9185H81.9063H81.894H81.8816H81.8692H81.8567H81.8442H81.8316H81.8189H81.8061H81.7933H81.7804H81.7675H81.7545H81.7414H81.7282H81.715H81.7017H81.6884H81.6749H81.6615H81.6479H81.6343H81.6206H81.6068H81.593H81.5791H81.5651H81.5511H81.5369H81.5228H81.5085H81.4942H81.4798H81.4653H81.4508H81.4362H81.4215H81.4068H81.392H81.3771H81.3621H81.3471H81.332H81.3168H81.3015H81.2862H81.2708H81.2553H81.2398H81.2242H81.2085H81.1927H81.1769H81.161H81.145H81.1289H81.1128H81.0966H81.0803H81.064H81.0475H81.031H81.0144H80.9978H80.981H80.9642H80.9473H80.9304H80.9133H80.8962H80.879H80.8617H80.8444H80.827H80.8094H80.7919H80.7742H80.7565H80.7386H80.7207H80.7028H80.6847H80.6666H80.6484H80.6301H80.6117H80.5933H80.5747H80.5561H80.5374H80.5187H80.4998H80.4809H80.4619H80.4428H80.4236H80.4043H80.385H80.3656H80.3461H80.3265H80.3068H80.2871H80.2672H80.2473H80.2273H80.2073H80.1871H80.1668H80.1465H80.1261H80.1056H80.085H80.0644H80.0436H80.0228H80.0018H79.9808H79.9597H79.9386H79.9173H79.896H79.8745H79.853H79.8314H79.8097H79.7879H79.7661H79.7441H79.7221H79.6999H79.6777H79.6554H79.633H79.6106H79.588H79.5653H79.5426H79.5198H79.4968H79.4738H79.4507H79.4276H79.4043H79.3809H79.3575H79.3339H79.3103H79.2865H79.2627H79.2388H79.2148H79.1907H79.1666H79.1423H79.1179H79.0935H79.0689H79.0443H79.0195H78.9947H78.9698H78.9448H78.9197H78.8945H78.8692H78.8438H78.8184H78.7928H78.7671H78.7414H78.7155H78.6896H78.6635H78.6374H78.6112H78.5848H78.5584H78.5319H78.5053H78.4786H78.4518H78.4249H78.3979H78.3708H78.3436H78.3163H78.2889H78.2615H78.2339H78.2062H78.1784H78.1506H78.1226H78.0945H78.0664H78.0381H78.0097H77.9813H77.9527H77.924H77.8953H77.8664H77.8375H77.8084H77.7793H77.75H77.7206H77.6912H77.6616H77.632H77.6022H77.5723H77.5424H77.5123H77.4821H77.4611H77.44H77.4188H77.3976H77.3763H77.355H77.3337H77.3123H77.2908H77.2693H77.2478H77.2262H77.2045H77.1828H77.1611H77.1393H77.1174H77.0955H77.0736H77.0516H77.0295H77.0074H76.9853H76.963H76.9408H76.9185H76.8961H76.8737H76.8513H76.8288H76.8062H76.7836H76.7609H76.7382H76.7155H76.6927H76.6698H76.6469H76.6239H76.6009H76.5778H76.5547H76.5315H76.5083H76.485H76.4617H76.4383H76.4149H76.3914H76.3679H76.3443H76.3207H76.297H76.2732H76.2494H76.2256H76.2017H76.1777H76.1537H76.1297H76.1056H76.0814H76.0572H76.0329H76.0086H75.9842H75.9598H75.9353H75.9108H75.8862H75.8616H75.8369H75.8121H75.7873H75.7625H75.7376H75.7126H75.6876H75.6626H75.6374H75.6123H75.587H75.5618H75.5364H75.511H75.4856H75.4601H75.4346H75.409H75.3833H75.3576H75.3318H75.306H75.2801H75.2542H75.2282H75.2022H75.1761H75.1499H75.1237H75.0975H75.0712H75.0448H75.0184H74.9919H74.9654H74.9388H74.9121H74.8854H74.8587H74.8319H74.805H74.7781H74.7511H74.7241H74.697H74.6698H74.6427H74.6154H74.5881H74.5607H74.5333H74.5058H74.4783H74.4507H74.4231H74.3953H74.3676H74.3398H74.3119H74.284H74.256H74.2279H74.1998H74.1717H74.1435H74.1152H74.0869H74.0585H74.0301H74.0016H73.973H73.9444H73.9157H73.887H73.8582H73.8294H73.8005H73.7715H73.7425H73.7134H73.6843H73.6551H73.6259H73.5966H73.5672H73.5378H73.5083H73.4788H73.4492H73.4195H73.3898H73.3601H73.3302H73.3003H73.2704H73.2404H73.2103H73.1802H73.15H73.1198H73.0895H73.0592H73.0287H72.9983H72.9677H72.9371H72.9065H72.8758H72.845H72.8142H72.7833H72.7523H72.7213H72.6903H72.6591H72.628H72.5967H72.5654H72.534H72.5026H72.4711H72.4396H72.408H72.3763H72.3446H72.3128H72.281H72.249H72.2171H72.185H72.153H72.1208H72.0886H72.0563H72.024H71.9916H71.9591H71.9266H71.8941H71.8614H71.8287H71.796H71.7631H71.7303H71.6973H71.6643H71.6312H71.5981H71.5649H71.5317H71.4984H71.465H71.4315H71.3981H71.3645H71.3309H71.2972H71.2634H71.2296H71.1958H71.1618H71.1278H71.0938H71.0596H71.0255H70.9912H70.9569H70.9225H70.8881H70.8536H70.819H70.7844H70.7497H70.715H70.6802H70.6453H70.6104H70.5754H70.5403H70.5052H70.47H70.4347H70.3994H70.364H70.3286H70.2931H70.2575H70.2218H70.1861H70.1504H70.1145H70.0786H70.0427H70.0067H69.9706H69.9344H69.8982H69.8619H69.8256H69.7892H69.7527H69.7162H69.6796H69.6429H69.6062H69.5694H69.5325H69.4956H69.4586H69.4215H69.3844H69.3472H69.31H69.2726H69.2353H69.1978H69.1603H69.1227H69.0851H69.0474H69.0096H68.9717H68.9338H68.8959H68.8578H68.8197H68.7815H68.7433H68.705H68.6666H68.6282H68.5897H68.5511H68.5125H68.4738H68.435H68.3962H68.3573H68.3183H68.2792H68.2401H68.201H68.1617H68.1224H68.0831H68.0436H68.0041H67.9645H67.9249H67.8852H67.8454H67.8056H67.7656H67.7257H67.6856H67.6455H67.6053H67.5651H67.5248H67.4844H67.4439H67.4034H67.3628H67.3221H67.2814H67.2406H67.1998H67.1588H67.1178H67.0768H67.0356H66.9944H66.9531H66.9118H66.8704H66.8289H66.7873H66.7457H66.704H66.6623H66.6205H66.5786H66.5366H66.4946H66.4525H66.4103H66.368H66.3257H66.2833H66.2409H66.1984H66.1558H66.1131H66.0704H66.0276H65.9847H65.9418H65.8988H65.8557H65.8125H65.7693H65.726H65.6826H65.6392H65.5957H65.5521H65.5085H65.4648H65.421H65.3771H65.3332H65.2892H65.2451H65.201H65.1568H65.1125H65.0681H65.0237H64.9792H64.9346H64.89H64.8453H64.8005H64.7556H64.7107H64.6657H64.6206H64.5755H64.5303H64.485H64.4396H64.3942H64.3487H64.3031H64.2575H64.2118H64.166H64.1201H64.0742H64.0282H63.9821H63.9359H63.8897H63.8434H63.797H63.7506H63.7041H63.6575H63.6108H63.5641H63.5173H63.4704H63.4234H63.3764H63.3293H63.2821H63.2348H63.1875H63.1401H63.0926H63.0451H62.9975H62.9498H62.902H62.8542H62.8063H62.7583H62.7102H62.6621H62.6139H62.5656H62.5172H62.4688H62.4203H62.3717H62.323H62.2743H62.2255H62.1766H62.1276H62.0786H62.0295H61.9803H61.931H61.8817H61.8323H61.7828H61.7333H61.6836H61.6339H61.5841H61.5343H61.4843H61.4343H61.3842H61.3341H61.2838H61.2335H61.1831H61.1327H61.0821H61.0315H60.9808H60.93H60.8792H60.8283H60.7773H60.7262H60.675H60.6238H60.5725H60.5211H60.4696H60.4181H60.3665H60.3148H60.263H60.2112H60.1593H60.1073H60.0552H60.003H59.9508H59.8985H59.8461H59.7936H59.7411H59.6885H59.6358H59.583H59.5302H59.4772H59.4242H59.3711H59.318H59.2647H59.2114H59.158H59.1046H59.051H58.9974H54.6237Z" fill="white" stroke="#B4B9C9" stroke-width="1.2"/>
</g>
<defs>
<filter id="filter0_d_5505_57407" x="25.6784" y="31.4432" width="37.2584" height="37.2587" filterUnits="userSpaceOnUse" color-interpolation-filters="sRGB">
<feFlood flood-opacity="0" result="BackgroundImageFix"/>
<feColorMatrix in="SourceAlpha" type="matrix" values="0 0 0 0 0 0 0 0 0 0 0 0 0 0 0 0 0 0 127 0" result="hardAlpha"/>
<feOffset dy="3.41794"/>
<feGaussianBlur stdDeviation="2.84828"/>
<feComposite in2="hardAlpha" operator="out"/>
<feColorMatrix type="matrix" values="0 0 0 0 0.309697 0 0 0 0 0.72935 0 0 0 0 0.399286 0 0 0 0.25 0"/>
<feBlend mode="normal" in2="BackgroundImageFix" result="effect1_dropShadow_5505_57407"/>
<feBlend mode="normal" in="SourceGraphic" in2="effect1_dropShadow_5505_57407" result="shape"/>
</filter>
<radialGradient id="paint0_radial_5505_57407" cx="0" cy="0" r="1" gradientUnits="userSpaceOnUse" gradientTransform="translate(44.4484 44.682) rotate(90) scale(45.3927 45.3927)">
<stop stop-color="#EEF9F5" stop-opacity="0.28"/>
<stop offset="1" stop-color="#EEF9F5"/>
</radialGradient>
<clipPath id="clip0_5505_57407">
<rect width="92" height="91" fill="white"/>
</clipPath>
</defs>
</svg>
