<svg width="773" height="504" viewBox="0 0 773 504" fill="none" xmlns="http://www.w3.org/2000/svg">
<g opacity="0.2">
<path d="M623.025 127.021H545.281L467.538 189.81L467.538 252.598H545.281L623.025 189.81V127.021Z" stroke="#D4DEE4"/>
<path d="M467.538 127.021H389.795L312.051 189.81L312.051 252.598H389.795L467.538 189.81V127.021Z" stroke="#D4DEE4"/>
<path d="M623.025 1.44434H545.281L467.538 64.2325L467.538 127.021H545.281L623.025 64.2325V1.44434Z" stroke="#D4DEE4"/>
<path d="M467.538 1.44434H389.795L312.051 64.2325L312.051 127.021H389.795L467.538 64.2325V1.44434Z" stroke="#D4DEE4"/>
<path d="M778.513 127.021H700.77L623.026 189.81L623.026 252.598H700.77L778.513 189.81V127.021Z" stroke="#D4DEE4"/>
<path d="M778.513 1.44434H700.77L623.026 64.2325L623.026 127.021H700.77L778.513 64.2325V1.44434Z" stroke="#D4DEE4"/>
<path d="M778.513 378.175H700.77L623.026 440.963L623.026 503.751H700.77L778.513 440.963V378.175Z" stroke="#D4DEE4"/>
<path d="M778.513 252.598H700.77L623.026 315.386L623.026 378.174H700.77L778.513 315.386V252.598Z" stroke="#D4DEE4"/>
<path d="M623.025 378.175H545.281L467.538 440.963L467.538 503.751H545.281L623.025 440.963V378.175Z" stroke="#D4DEE4"/>
<path d="M467.538 378.175H389.795L312.051 440.963L312.051 503.751H389.795L467.538 440.963V378.175Z" stroke="#D4DEE4"/>
<path d="M623.025 252.598H545.281L467.538 315.386L467.538 378.174H545.281L623.025 315.386V252.598Z" stroke="#D4DEE4"/>
<path d="M467.538 252.598H389.795L312.051 315.386L312.051 378.174H389.795L467.538 315.386V252.598Z" stroke="#D4DEE4"/>
<path d="M312.053 378.175H234.309L156.566 440.963L156.566 503.751H234.309L312.053 440.963V378.175Z" stroke="#D4DEE4"/>
<path d="M156.566 378.175H78.8226L1.07881 440.963L1.0788 503.751H78.8226L156.566 440.963V378.175Z" stroke="#D4DEE4"/>
<path d="M312.053 252.598H234.309L156.566 315.386L156.566 378.174H234.309L312.053 315.386V252.598Z" stroke="#D4DEE4"/>
<path d="M156.566 252.598H78.8226L1.07881 315.386L1.0788 378.174H78.8226L156.566 315.386V252.598Z" stroke="#D4DEE4"/>
</g>
</svg>
