<svg width="576" height="376" viewBox="0 0 576 376" fill="none" xmlns="http://www.w3.org/2000/svg">
<g opacity="0.2">
<path d="M622.714 126.468H544.97L467.227 189.256L467.227 252.045H544.97L622.714 189.256V126.468Z" stroke="#D4DEE4"/>
<path d="M467.228 126.468H389.484L311.74 189.256L311.74 252.045H389.484L467.228 189.256V126.468Z" stroke="#D4DEE4"/>
<path d="M622.714 0.891357H544.97L467.227 63.6795L467.227 126.468H544.97L622.714 63.6795V0.891357Z" stroke="#D4DEE4"/>
<path d="M467.228 0.891357H389.484L311.74 63.6795L311.74 126.468H389.484L467.228 63.6795V0.891357Z" stroke="#D4DEE4"/>
<path d="M622.714 252.044H544.97L467.227 314.833L467.227 377.621H544.97L622.714 314.833V252.044Z" stroke="#D4DEE4"/>
<path d="M467.228 252.044H389.484L311.74 314.833L311.74 377.621H389.484L467.228 314.833V252.044Z" stroke="#D4DEE4"/>
<path d="M311.742 252.044H233.998L156.254 314.833L156.254 377.621H233.998L311.742 314.833V252.044Z" stroke="#D4DEE4"/>
<path d="M156.255 252.044H78.5114L0.767581 314.833L0.767578 377.621H78.5114L156.255 314.833V252.044Z" stroke="#D4DEE4"/>
</g>
</svg>
