<svg width="19" height="26" viewBox="0 0 19 26" fill="none" xmlns="http://www.w3.org/2000/svg">
<path d="M5.30029 20.4316H13.632V22.8125C13.632 23.9171 12.7365 24.8125 11.632 24.8125H7.30029C6.19572 24.8125 5.30029 23.9171 5.30029 22.8125V20.4316Z" stroke="#FF3A2D" stroke-width="2"/>
<path fill-rule="evenodd" clip-rule="evenodd" d="M13.6319 20.4316C13.6319 18.2108 14.9842 16.2585 16.2975 14.4676C17.3252 13.0662 17.9321 11.337 17.9321 9.46607C17.9321 4.79039 14.1418 1 9.46607 1C4.79039 1 1 4.79039 1 9.46607C1 11.337 1.60691 13.0662 2.63459 14.4676C3.94798 16.2585 5.30023 18.2108 5.30023 20.4316V20.4316H13.6319V20.4316Z" stroke="#FF3A2D" stroke-width="2"/>
</svg>
