<svg width="30" height="30" viewBox="0 0 30 30" fill="none" xmlns="http://www.w3.org/2000/svg">
<g opacity="0.3" filter="url(#filter0_f_5521_57284)">
<path d="M12.3482 4.65302H9.27535C8.05288 4.65302 6.88048 5.13864 6.01606 6.00306C5.15164 6.86748 4.66602 8.03988 4.66602 9.26235V22.3221C4.66602 23.5446 5.15164 24.717 6.01606 25.5814C6.88048 26.4458 8.05288 26.9315 9.27535 26.9315H22.3351C23.5576 26.9315 24.73 26.4458 25.5944 25.5814C26.4588 24.717 26.9445 23.5446 26.9445 22.3221V10.0306M12.3482 4.65302V8.49413C12.3482 8.90162 12.5101 9.29242 12.7983 9.58056C13.0864 9.86869 13.4772 10.0306 13.8847 10.0306H19.2622M12.3482 4.65302H19.2622M26.9445 10.0306V9.26235C26.9445 8.03988 26.4588 6.86748 25.5944 6.00306C24.73 5.13864 23.5576 4.65302 22.3351 4.65302H19.2622M26.9445 10.0306H19.2622M19.2622 10.0306V4.65302" stroke="#2388FF" stroke-width="1.54464" stroke-linecap="round" stroke-linejoin="round"/>
</g>
<rect x="12.6465" y="4.65302" width="12.2119" height="3.86502" fill="#E3EFFF"/>
<path d="M11.5426 3.86078H8.46968C7.24721 3.86078 6.07481 4.3464 5.21039 5.21082C4.34598 6.07524 3.86035 7.24764 3.86035 8.47011V21.5299C3.86035 22.7524 4.34598 23.9248 5.21039 24.7892C6.07481 25.6536 7.24721 26.1392 8.46968 26.1392H21.5295C22.7519 26.1392 23.9243 25.6536 24.7888 24.7892C25.6532 23.9248 26.1388 22.7524 26.1388 21.5299V9.23833M11.5426 3.86078V7.70189C11.5426 8.10938 11.7044 8.50018 11.9926 8.78832C12.2807 9.07646 12.6715 9.23833 13.079 9.23833H18.4566M11.5426 3.86078H18.4566ZM26.1388 9.23833V8.47011C26.1388 7.24764 25.6532 6.07524 24.7888 5.21082C23.9243 4.3464 22.7519 3.86078 21.5295 3.86078H18.4566M26.1388 9.23833H18.4566ZM18.4566 9.23833V3.86078Z" fill="#E3EFFF"/>
<path d="M11.5426 3.86078H8.46968C7.24721 3.86078 6.07481 4.3464 5.21039 5.21082C4.34598 6.07524 3.86035 7.24764 3.86035 8.47011V21.5299C3.86035 22.7524 4.34598 23.9248 5.21039 24.7892C6.07481 25.6536 7.24721 26.1392 8.46968 26.1392H21.5295C22.7519 26.1392 23.9243 25.6536 24.7888 24.7892C25.6532 23.9248 26.1388 22.7524 26.1388 21.5299V9.23833M11.5426 3.86078V7.70189C11.5426 8.10938 11.7044 8.50018 11.9926 8.78832C12.2807 9.07646 12.6715 9.23833 13.079 9.23833H18.4566M11.5426 3.86078H18.4566M26.1388 9.23833V8.47011C26.1388 7.24764 25.6532 6.07524 24.7888 5.21082C23.9243 4.3464 22.7519 3.86078 21.5295 3.86078H18.4566M26.1388 9.23833H18.4566M18.4566 9.23833V3.86078" stroke="#2388FF" stroke-width="1.54464" stroke-linecap="round" stroke-linejoin="round"/>
<defs>
<filter id="filter0_f_5521_57284" x="1.89355" y="1.88071" width="27.8232" height="27.8231" filterUnits="userSpaceOnUse" color-interpolation-filters="sRGB">
<feFlood flood-opacity="0" result="BackgroundImageFix"/>
<feBlend mode="normal" in="SourceGraphic" in2="BackgroundImageFix" result="shape"/>
<feGaussianBlur stdDeviation="1" result="effect1_foregroundBlur_5521_57284"/>
</filter>
</defs>
</svg>
