<svg width="30" height="30" viewBox="0 0 30 30" fill="none" xmlns="http://www.w3.org/2000/svg">
<g clip-path="url(#clip0_5534_57337)">
<g opacity="0.25" filter="url(#filter0_f_5534_57337)">
<path d="M5.02319 24.0296C5.45317 23.3968 5.25643 22.6842 5.10432 22.407C2.8205 18.4449 2.46582 16.1057 2.46582 14.5043C2.46582 4.97906 10.2857 2.4209 15.592 2.4209C20.8983 2.4209 27.9677 5.38515 27.9677 14.5043C27.9677 23.6235 19.9303 25.8043 17.892 26.0071C15.8537 26.2099 13.2943 25.9392 12.4628 25.9392C10.9098 25.9392 9.63058 26.9217 8.47771 27.366C7.48729 27.8223 6.14275 28.2584 5.22601 27.366C4.08009 26.2505 4.48573 24.8206 5.02319 24.0296Z" stroke="#2388FF" stroke-width="1.47126" stroke-linecap="round"/>
<path d="M16.4282 18.7259C16.4282 19.3977 15.8836 19.9423 15.2118 19.9423C14.5399 19.9423 13.9953 19.3977 13.9953 18.7259C13.9953 18.0541 14.5399 17.5094 15.2118 17.5094C15.8836 17.5094 16.4282 18.0541 16.4282 18.7259Z" fill="#8DC1FF" stroke="#8DC1FF" stroke-width="0.980841"/>
<line x1="15.3229" y1="14.2411" x2="15.3229" y2="9.23566" stroke="#8DC1FF" stroke-width="1.96168" stroke-linecap="round" stroke-linejoin="round"/>
</g>
<path d="M4.5896 23.7244C5.01957 23.0916 4.82284 22.379 4.67073 22.1018C2.3869 18.1396 2.03223 15.8004 2.03223 14.1991C2.03223 4.67382 9.85209 2.11566 15.1584 2.11566C20.4648 2.11566 27.5341 5.07991 27.5341 14.1991C27.5341 23.3183 19.4967 25.499 17.4584 25.7018C15.4201 25.9047 12.8607 25.634 12.0292 25.634C10.4762 25.634 9.19699 26.6165 8.04412 27.0607C7.05369 27.5171 5.70915 27.9531 4.79242 27.0607C3.6465 25.9452 4.05213 24.5154 4.5896 23.7244Z" fill="#E3EFFF" stroke="#2388FF" stroke-width="1.47126" stroke-linecap="round"/>
<path d="M15.9946 18.4207C15.9946 19.0925 15.45 19.6371 14.7782 19.6371C14.1063 19.6371 13.5617 19.0925 13.5617 18.4207C13.5617 17.7488 14.1063 17.2042 14.7782 17.2042C15.45 17.2042 15.9946 17.7488 15.9946 18.4207Z" fill="#8DC1FF" stroke="#8DC1FF" stroke-width="0.980841"/>
<line x1="14.8893" y1="13.9358" x2="14.8893" y2="8.93042" stroke="#8DC1FF" stroke-width="1.96168" stroke-linecap="round" stroke-linejoin="round"/>
</g>
<defs>
<filter id="filter0_f_5534_57337" x="-0.231212" y="-0.276409" width="30.896" height="30.8579" filterUnits="userSpaceOnUse" color-interpolation-filters="sRGB">
<feFlood flood-opacity="0" result="BackgroundImageFix"/>
<feBlend mode="normal" in="SourceGraphic" in2="BackgroundImageFix" result="shape"/>
<feGaussianBlur stdDeviation="0.980841" result="effect1_foregroundBlur_5534_57337"/>
</filter>
<clipPath id="clip0_5534_57337">
<rect width="30" height="30" fill="white"/>
</clipPath>
</defs>
</svg>
