<svg width="52" height="52" viewBox="0 0 52 52" fill="none" xmlns="http://www.w3.org/2000/svg">
<path d="M49.3187 14.4294C48.7512 12.2924 47.0792 10.6092 44.9557 10.038C41.1072 9 25.675 9 25.675 9C25.675 9 10.2428 9 6.39401 10.038C4.27084 10.6092 2.59855 12.2924 2.03102 14.4294C1 18.3031 1 26.3847 1 26.3847C1 26.3847 1 34.4666 2.03102 38.3403C2.59855 40.4772 4.27084 42.1602 6.39401 42.7317C10.2428 43.7694 25.675 43.7694 25.675 43.7694C25.675 43.7694 41.1072 43.7694 44.9557 42.7317C47.0792 42.1602 48.7512 40.4772 49.3187 38.3403C50.35 34.4666 50.35 26.3847 50.35 26.3847C50.35 26.3847 50.35 18.3031 49.3187 14.4294Z" fill="#0E181E"/>
<path d="M20.6255 33.7231L33.5238 26.3856L20.6255 19.0479V33.7231Z" fill="#F6F8F9"/>
</svg>
