<svg width="120" height="120" viewBox="0 0 120 120" fill="none" xmlns="http://www.w3.org/2000/svg">
<g clip-path="url(#clip0_5469_58247)">
<rect width="120" height="120" fill="#F1F3F7"/>
<path fill-rule="evenodd" clip-rule="evenodd" d="M60.0007 40.8004C55.8135 40.8004 52.4191 44.1948 52.4191 48.382C52.4191 52.5691 55.8135 55.9635 60.0007 55.9635C64.1879 55.9635 67.5823 52.5691 67.5823 48.382C67.5823 44.1948 64.1879 40.8004 60.0007 40.8004ZM48.7031 48.382C48.7031 42.1425 53.7612 37.0844 60.0007 37.0844C66.2402 37.0844 71.2983 42.1425 71.2983 48.382C71.2983 54.6214 66.2402 59.6795 60.0007 59.6795C53.7612 59.6795 48.7031 54.6214 48.7031 48.382Z" fill="#6D758F"/>
<path fill-rule="evenodd" clip-rule="evenodd" d="M45.8278 67.3279C49.2232 65.3012 53.8171 63.9511 60.0005 63.9511C66.184 63.9511 70.7778 65.3012 74.1732 67.3279C77.5701 69.3556 79.6589 71.9958 80.9315 74.4053L80.9316 74.4054C82.0704 76.5619 81.6978 78.7994 80.4052 80.4225C79.1619 81.9838 77.1383 82.9156 74.9659 82.9156H45.0351C42.8627 82.9156 40.839 81.9838 39.5958 80.4225C38.3032 78.7993 37.9306 76.5618 39.0695 74.4054C40.3421 71.9958 42.4309 69.3556 45.8278 67.3279ZM47.7324 70.5187C45.0087 72.1445 43.3613 74.2363 42.3555 76.1408L42.3554 76.1408C41.9455 76.9169 42.0759 77.5717 42.5027 78.1076C42.9788 78.7055 43.8908 79.1996 45.0351 79.1996H74.9659C76.1101 79.1996 77.0222 78.7055 77.4983 78.1076C77.9251 77.5717 78.0555 76.9169 77.6457 76.1408C76.6398 74.2363 74.9923 72.1446 72.2686 70.5187C69.5434 68.892 65.6325 67.6671 60.0005 67.6671C54.3685 67.6671 50.4576 68.892 47.7324 70.5187Z" fill="#6D758F"/>
</g>
<defs>
<clipPath id="clip0_5469_58247">
<rect width="120" height="120" fill="white"/>
</clipPath>
</defs>
</svg>
