<svg width="48" height="49" viewBox="0 0 48 49" fill="none" xmlns="http://www.w3.org/2000/svg">
<mask id="mask0_5505_57347" style="mask-type:alpha" maskUnits="userSpaceOnUse" x="1" y="2" width="46" height="45">
<rect x="1.68066" y="2.34967" width="44.6131" height="44.6024" rx="22.3012" fill="#E3EFFF"/>
</mask>
<g mask="url(#mask0_5505_57347)">
<line x1="32.8195" y1="0.500061" x2="32.8195" y2="50.5481" stroke="#ADECBB" stroke-width="1.02564"/>
<line x1="41.1271" y1="0.500061" x2="41.1271" y2="50.5481" stroke="#ADECBB" stroke-width="1.02564"/>
<line x1="24.5118" y1="0.500061" x2="24.5118" y2="50.5481" stroke="#ADECBB" stroke-width="1.02564"/>
<line x1="7.89661" y1="0.500061" x2="7.89661" y2="50.5481" stroke="#ADECBB" stroke-width="1.02564"/>
<line x1="16.2042" y1="0.500061" x2="16.2042" y2="50.5481" stroke="#ADECBB" stroke-width="1.02564"/>
<line x1="-1.02441" y1="16.7035" x2="49.0237" y2="16.7035" stroke="#ADECBB" stroke-width="1.02564"/>
<line x1="-1.02441" y1="8.39581" x2="49.0237" y2="8.39581" stroke="#ADECBB" stroke-width="1.02564"/>
<line x1="-1.02441" y1="25.0112" x2="49.0237" y2="25.0112" stroke="#ADECBB" stroke-width="1.02564"/>
<line x1="-1.02441" y1="41.6266" x2="49.0237" y2="41.6266" stroke="#ADECBB" stroke-width="1.02564"/>
<line x1="-1.02441" y1="33.319" x2="49.0237" y2="33.319" stroke="#ADECBB" stroke-width="1.02564"/>
<rect x="1.41211" y="2.03467" width="45.0024" height="44.9916" rx="10.7692" fill="url(#paint0_radial_5505_57347)"/>
</g>
<g filter="url(#filter0_d_5505_57347)">
<circle cx="24.0002" cy="24.5" r="12.9328" fill="#EEF9F5"/>
<circle cx="24.0002" cy="24.5" r="12.3328" stroke="#63DE77" stroke-width="1.2"/>
</g>
<path d="M28.0869 25.2783L23.9999 29.5599L19.9129 25.2783" stroke="#63DE77" stroke-width="1.2" stroke-linecap="round" stroke-linejoin="round"/>
<path d="M24.001 29.5599L24.001 19.4397" stroke="#63DE77" stroke-width="1.2" stroke-linecap="round" stroke-linejoin="round"/>
<defs>
<filter id="filter0_d_5505_57347" x="5.37081" y="9.28863" width="37.2584" height="37.2587" filterUnits="userSpaceOnUse" color-interpolation-filters="sRGB">
<feFlood flood-opacity="0" result="BackgroundImageFix"/>
<feColorMatrix in="SourceAlpha" type="matrix" values="0 0 0 0 0 0 0 0 0 0 0 0 0 0 0 0 0 0 127 0" result="hardAlpha"/>
<feOffset dy="3.41794"/>
<feGaussianBlur stdDeviation="2.84828"/>
<feComposite in2="hardAlpha" operator="out"/>
<feColorMatrix type="matrix" values="0 0 0 0 0.309697 0 0 0 0 0.72935 0 0 0 0 0.399286 0 0 0 0.25 0"/>
<feBlend mode="normal" in2="BackgroundImageFix" result="effect1_dropShadow_5505_57347"/>
<feBlend mode="normal" in="SourceGraphic" in2="effect1_dropShadow_5505_57347" result="shape"/>
</filter>
<radialGradient id="paint0_radial_5505_57347" cx="0" cy="0" r="1" gradientUnits="userSpaceOnUse" gradientTransform="translate(23.9133 24.5305) rotate(90) scale(22.4958 22.5012)">
<stop stop-color="#EEF9F5" stop-opacity="0.28"/>
<stop offset="1" stop-color="#EEF9F5"/>
</radialGradient>
</defs>
</svg>
