<svg width="925" height="747" viewBox="0 0 925 747" fill="none" xmlns="http://www.w3.org/2000/svg">
<g opacity="0.2">
<path d="M615.993 373.517H539.119L462.244 435.603L462.244 497.689H539.119L615.993 435.603V373.517Z" stroke="#D4DEE4" stroke-width="1.5"/>
<path d="M462.245 373.517H385.371L308.496 435.603L308.496 497.689H385.371L462.245 435.603V373.517Z" stroke="#D4DEE4" stroke-width="1.5"/>
<path d="M615.993 249.345H539.119L462.244 311.431L462.244 373.517H539.119L615.993 311.431V249.345Z" stroke="#D4DEE4" stroke-width="1.5"/>
<path d="M462.245 249.345H385.371L308.496 311.431L308.496 373.517H385.371L462.245 311.431V249.345Z" stroke="#D4DEE4" stroke-width="1.5"/>
<path d="M923.491 373.517H846.617L769.742 435.603L769.742 497.689H846.617L923.491 435.603V373.517Z" stroke="#D4DEE4" stroke-width="1.5"/>
<path d="M769.743 373.517H692.869L615.994 435.603L615.994 497.689H692.869L769.743 435.603V373.517Z" stroke="#D4DEE4" stroke-width="1.5"/>
<path d="M923.491 249.345H846.617L769.742 311.431L769.742 373.517H846.617L923.491 311.431V249.345Z" stroke="#D4DEE4" stroke-width="1.5"/>
<path d="M769.743 249.345H692.869L615.994 311.431L615.994 373.517H692.869L769.743 311.431V249.345Z" stroke="#D4DEE4" stroke-width="1.5"/>
<path d="M923.491 125.172H846.617L769.742 187.259L769.742 249.345H846.617L923.491 187.259V125.172Z" stroke="#D4DEE4" stroke-width="1.5"/>
<path d="M769.743 125.172H692.869L615.994 187.259L615.994 249.345H692.869L769.743 187.259V125.172Z" stroke="#D4DEE4" stroke-width="1.5"/>
<path d="M923.491 1H846.617L769.742 63.0862L769.742 125.172H846.617L923.491 63.0862V1Z" stroke="#D4DEE4" stroke-width="1.5"/>
<path d="M769.743 1H692.869L615.994 63.0862L615.994 125.172H692.869L769.743 63.0862V1Z" stroke="#D4DEE4" stroke-width="1.5"/>
<path d="M923.491 621.862H846.617L769.742 683.948L769.742 746.034H846.617L923.491 683.948V621.862Z" stroke="#D4DEE4" stroke-width="1.5"/>
<path d="M769.743 621.862H692.869L615.994 683.948L615.994 746.034H692.869L769.743 683.948V621.862Z" stroke="#D4DEE4" stroke-width="1.5"/>
<path d="M923.491 497.69H846.617L769.742 559.776L769.742 621.862H846.617L923.491 559.776V497.69Z" stroke="#D4DEE4" stroke-width="1.5"/>
<path d="M769.743 497.69H692.869L615.994 559.776L615.994 621.862H692.869L769.743 559.776V497.69Z" stroke="#D4DEE4" stroke-width="1.5"/>
<path d="M615.993 621.862H539.119L462.244 683.948L462.244 746.034H539.119L615.993 683.948V621.862Z" stroke="#D4DEE4" stroke-width="1.5"/>
<path d="M462.245 621.862H385.371L308.496 683.948L308.496 746.034H385.371L462.245 683.948V621.862Z" stroke="#D4DEE4" stroke-width="1.5"/>
<path d="M615.993 497.69H539.119L462.244 559.776L462.244 621.862H539.119L615.993 559.776V497.69Z" stroke="#D4DEE4" stroke-width="1.5"/>
<path d="M462.245 497.69H385.371L308.496 559.776L308.496 621.862H385.371L462.245 559.776V497.69Z" stroke="#D4DEE4" stroke-width="1.5"/>
<path d="M308.497 621.862H231.623L154.748 683.948L154.748 746.035H231.623L308.497 683.948V621.862Z" stroke="#D4DEE4" stroke-width="1.5"/>
<path d="M154.749 621.862H77.8746L1 683.948L1 746.035H77.8746L154.749 683.948V621.862Z" stroke="#D4DEE4" stroke-width="1.5"/>
<path d="M308.497 497.69H231.623L154.748 559.776L154.748 621.862H231.623L308.497 559.776V497.69Z" stroke="#D4DEE4" stroke-width="1.5"/>
<path d="M154.749 497.69H77.8746L1 559.776L1 621.862H77.8746L154.749 559.776V497.69Z" stroke="#D4DEE4" stroke-width="1.5"/>
</g>
</svg>
