<svg width="166" height="34" viewBox="0 0 166 34" fill="none" xmlns="http://www.w3.org/2000/svg">
<g clip-path="url(#clip0_7631_17923)">
<path d="M156.829 10.8492C161.235 10.8492 164.122 13.9185 164.122 18.021C164.122 18.72 164 19.3581 163.879 19.9355H153C153.243 22.3667 155.279 23.643 157.558 23.643C159.351 23.643 160.688 22.8833 161.63 21.9108L163.818 24.5243C161.904 26.3477 159.928 27.077 157.376 27.077C152.27 27.077 148.897 23.5215 148.897 18.9935C148.897 14.4655 152.209 10.8492 156.829 10.8492ZM156.798 14.1616C154.853 14.1616 153.334 15.3164 153 17.2613H160.263V17.2309C160.111 15.3164 158.652 14.1616 156.798 14.1616Z" fill="#D4DEE4"/>
<path d="M137.312 11.2138H139.622V6.98972H143.451V11.2138H147.128V14.3743H143.451V21.2727C143.451 22.7618 144.18 23.5215 145.608 23.5215C146.064 23.5215 146.824 23.4607 147.523 23.0049V26.4692C146.824 26.8339 145.882 27.077 144.575 27.077C141.415 27.077 139.5 25.2233 139.5 21.8501V14.3743H137.312V11.2138Z" fill="#D4DEE4"/>
<path d="M119.865 11.2138H123.816V20.1483C123.816 22.3667 125.122 23.5519 126.946 23.5519C129.407 23.5519 130.501 21.303 130.501 19.2062V11.2138H134.452V26.7123H130.653V24.5851C129.681 26.1957 128.161 27.077 125.882 27.077C122.235 27.077 119.865 24.7066 119.865 20.6041V11.2138Z" fill="#D4DEE4"/>
<path d="M107.249 11.2138H109.559V6.98972H113.388V11.2138H117.065V14.3743H113.388V21.2727C113.388 22.7618 114.117 23.5215 115.546 23.5215C116.001 23.5215 116.761 23.4607 117.46 23.0049V26.4692C116.761 26.8339 115.819 27.077 114.512 27.077C111.352 27.077 109.437 25.2233 109.437 21.8501V14.3743H107.249V11.2138Z" fill="#D4DEE4"/>
<path d="M100.432 26.7124V11.2138H104.383V26.7124H100.432ZM102.377 4.4978C103.623 4.4978 104.656 5.40948 104.656 6.71622C104.656 8.02296 103.623 8.96502 102.377 8.96502C101.07 8.96502 100.098 8.02296 100.098 6.71622C100.098 5.40948 101.07 4.4978 102.377 4.4978Z" fill="#D4DEE4"/>
<path d="M87.4547 11.2138H89.7643V6.98972H93.5933V11.2138H97.2704V14.3743H93.5933V21.2727C93.5933 22.7618 94.3227 23.5215 95.751 23.5215C96.2068 23.5215 96.9666 23.4607 97.6655 23.0049V26.4692C96.9666 26.8339 96.0245 27.077 94.7177 27.077C91.5573 27.077 89.6427 25.2233 89.6427 21.8501V14.3743H87.4547V11.2138Z" fill="#D4DEE4"/>
<path d="M79.7448 27.077C76.949 27.077 74.5482 25.7703 73.363 23.5823L76.0373 21.607C76.8882 22.9441 78.0734 23.8862 79.7448 23.8862C81.2035 23.8862 82.0848 23.3695 82.0848 22.549C82.0848 21.5766 81.2643 21.1815 78.7419 20.3306C75.5815 19.267 73.8797 18.021 73.8797 15.4683C73.8797 12.7941 76.4931 10.8492 79.836 10.8492C82.3887 10.8492 84.4855 12.0647 85.4884 13.9185L82.8445 15.833C82.2063 14.7694 81.2339 14.0096 79.7752 14.0096C78.5292 14.0096 77.5871 14.587 77.5871 15.4379C77.5871 16.2584 78.4077 16.6839 80.8084 17.5348C83.7562 18.5984 85.7923 19.6317 85.7923 22.4579C85.7923 25.0713 83.3307 27.077 79.7448 27.077Z" fill="#D4DEE4"/>
<path d="M55.9465 11.2138H59.7452V13.3411C60.7177 11.7304 62.2371 10.8492 64.5163 10.8492C68.163 10.8492 70.5334 13.2195 70.5334 17.3221V26.7124H66.5828V17.7779C66.5828 15.5595 65.276 14.3743 63.4527 14.3743C60.9912 14.3743 59.8971 16.5927 59.8971 18.72V26.7124H55.9465V11.2138Z" fill="#D4DEE4"/>
<path d="M47.4886 26.7124V11.2138H51.4392V26.7124H47.4886ZM49.4335 4.4978C50.6795 4.4978 51.7127 5.40948 51.7127 6.71622C51.7127 8.02296 50.6795 8.96502 49.4335 8.96502C48.1268 8.96502 47.1543 8.02296 47.1543 6.71622C47.1543 5.40948 48.1268 4.4978 49.4335 4.4978Z" fill="#D4DEE4"/>
<path fill-rule="evenodd" clip-rule="evenodd" d="M9.93689 1.6813C4.29667 4.4147 0.407471 10.1946 0.407471 16.8829C0.407471 26.2071 7.96622 33.7659 17.2904 33.7659C23.9787 33.7659 29.7587 29.8767 32.492 24.2364L17.2904 24.2364C13.2543 24.2364 9.97772 20.9848 9.93726 16.9583H9.93689V16.8928L9.93688 16.8829L9.93689 16.873V1.6813ZM33.9401 19.6958C34.0935 18.781 34.1733 17.8413 34.1733 16.8829C34.1733 7.55875 26.6146 0 17.2904 0C16.332 0 15.3923 0.0798525 14.4776 0.233267V10.0865C15.3441 9.72752 16.2941 9.52938 17.2904 9.52938C21.3516 9.52938 24.6439 12.8217 24.6439 16.8829C24.6439 17.8792 24.4458 18.8293 24.0868 19.6958H33.9401Z" fill="#D4DEE4"/>
</g>
<defs>
<clipPath id="clip0_7631_17923">
<rect width="166" height="34" fill="white"/>
</clipPath>
</defs>
</svg>
