<svg width="25" height="25" viewBox="0 0 25 25" fill="none" xmlns="http://www.w3.org/2000/svg">
<path d="M21.6222 18.751H12.2888L6.95551 22.751V18.751H4.28884C3.93522 18.751 3.59608 18.6105 3.34603 18.3605C3.09598 18.1104 2.95551 17.7713 2.95551 17.4176V4.08431C2.95551 3.73069 3.09598 3.39155 3.34603 3.1415C3.59608 2.89145 3.93522 2.75098 4.28884 2.75098H21.6222C21.9758 2.75098 22.3149 2.89145 22.565 3.1415C22.815 3.39155 22.9555 3.73069 22.9555 4.08431V17.4176C22.9555 17.7713 22.815 18.1104 22.565 18.3605C22.3149 18.6105 21.9758 18.751 21.6222 18.751Z" stroke="#FF3A2D" stroke-width="2" stroke-linecap="round" stroke-linejoin="round"/>
</svg>
