<svg width="166" height="36" viewBox="0 0 166 36" fill="none" xmlns="http://www.w3.org/2000/svg">
<g clip-path="url(#clip0_7631_17921)">
<path d="M50.954 23.0122C50.954 21.0356 49.0686 19.6063 46.423 19.6063H40.8277V26.4484H46.423C49.0686 26.4484 50.954 24.9888 50.954 23.0122ZM46.3622 10.9397H40.8277V16.7479H46.3622C48.7037 16.7479 50.3458 15.5619 50.3458 13.859C50.3458 12.1561 48.7037 10.9397 46.3622 10.9397ZM47.0312 29.4589H37.1786V7.92918H46.9096C51.0756 7.92918 54.0253 10.3619 54.0253 13.7069C54.0253 15.8052 52.6873 17.6297 50.8324 18.1467C53.0522 18.694 54.6335 20.8227 54.6335 23.3162C54.6335 26.9045 51.471 29.4589 47.0312 29.4589ZM72.1621 29.4589H68.9083V27.4823C67.8439 29.094 65.8977 30.0671 63.9212 30.0671C60.12 30.0671 57.6569 27.2694 57.6569 23.4379V14.011H60.9715V23.1946C60.9715 25.4753 62.3095 27.1174 64.651 27.1174C66.9317 27.1174 68.8779 25.3537 68.8779 22.8905V14.011H72.1621V29.4589ZM88.8971 24.8063C88.8971 27.8776 86.0995 30.0975 82.1767 30.0975C78.1018 30.0975 75.1521 27.6344 75.1521 24.2285H78.1931C78.1931 26.0531 79.8656 27.3911 82.1767 27.3911C84.2445 27.3911 85.7345 26.4484 85.7041 25.1712C85.7041 23.5595 83.3018 23.1642 81.7509 22.9513C78.1322 22.404 75.3954 21.9478 75.3954 18.2683C75.3954 15.4403 78.1018 13.3724 81.5989 13.3724C85.5825 13.3724 88.5018 15.5923 88.5018 18.6636H85.4304C85.4 17.1432 83.7884 16.0788 81.5685 16.0788C79.896 16.0788 78.4971 16.9911 78.4971 18.2379C78.4971 19.3935 79.6527 19.7584 82.1463 20.1841C85.0959 20.6706 88.8971 21.3092 88.8971 24.8063ZM92.1385 14.011H95.4227V29.4589H92.1385V14.011ZM93.7806 11.5175C92.5643 11.5175 91.7128 10.666 91.7128 9.48005C91.7128 8.3245 92.5643 7.50345 93.7806 7.50345C94.9666 7.50345 95.818 8.3245 95.818 9.48005C95.818 10.666 94.9666 11.5175 93.7806 11.5175ZM99.2937 14.011H102.548V15.9876C103.642 14.3759 105.558 13.4028 107.565 13.4028C111.336 13.4028 113.799 16.2005 113.799 20.032V29.4589H110.515V20.2753C110.515 17.9946 109.146 16.3525 106.835 16.3525C104.524 16.3525 102.608 18.1163 102.608 20.5794V29.4589H99.2937V14.011ZM119.678 20.3057H129.287C128.922 17.873 126.976 16.1701 124.422 16.1701C121.928 16.1701 120.104 17.8426 119.678 20.3057ZM116.242 21.5525C116.242 16.8087 119.708 13.4028 124.513 13.4028C129.318 13.4028 132.723 16.8087 132.723 21.5829C132.723 21.9478 132.693 22.404 132.663 22.7689L119.647 22.7385C120.043 25.4753 121.959 27.2999 124.483 27.2999C126.55 27.2999 128.466 26.0835 129.044 24.3806L132.146 24.8367C131.264 27.8776 128.071 30.0671 124.543 30.0671C119.708 30.0671 116.242 26.5092 116.242 21.5525ZM148.709 24.8063C148.709 27.8776 145.912 30.0975 141.989 30.0975C137.914 30.0975 134.964 27.6344 134.964 24.2285H138.005C138.005 26.0531 139.678 27.3911 141.989 27.3911C144.057 27.3911 145.547 26.4484 145.516 25.1712C145.516 23.5595 143.114 23.1642 141.563 22.9513C137.945 22.404 135.208 21.9478 135.208 18.2683C135.208 15.4403 137.914 13.3724 141.411 13.3724C145.395 13.3724 148.314 15.5923 148.314 18.6636H145.243C145.212 17.1432 143.601 16.0788 141.381 16.0788C139.708 16.0788 138.309 16.9911 138.309 18.2379C138.309 19.3935 139.465 19.7584 141.959 20.1841C144.908 20.6706 148.709 21.3092 148.709 24.8063ZM164.784 24.8063C164.784 27.8776 161.986 30.0975 158.063 30.0975C153.988 30.0975 151.039 27.6344 151.039 24.2285H154.08C154.08 26.0531 155.752 27.3911 158.063 27.3911C160.131 27.3911 161.621 26.4484 161.591 25.1712C161.591 23.5595 159.188 23.1642 157.637 22.9513C154.019 22.404 151.282 21.9478 151.282 18.2683C151.282 15.4403 153.988 13.3724 157.485 13.3724C161.469 13.3724 164.388 15.5923 164.388 18.6636H161.317C161.286 17.1432 159.675 16.0788 157.455 16.0788C155.782 16.0788 154.384 16.9911 154.384 18.2379C154.384 19.3935 155.539 19.7584 158.033 20.1841C160.982 20.6706 164.784 21.3092 164.784 24.8063Z" fill="#D4DEE4"/>
<path fill-rule="evenodd" clip-rule="evenodd" d="M12.6258 13.4699L17.3577 18.2018L12.8522 22.7072L8.12038 17.9754L12.6258 13.4699ZM7.77434 8.61844L4.80765 5.65175C4.63843 5.48252 4.63843 5.20816 4.80765 5.03893L9.04632 0.800258C9.21555 0.631034 9.48991 0.631034 9.65914 0.800258L24.1498 15.2909C25.7574 16.8985 25.7574 19.505 24.1498 21.1127L17.7037 27.5587L20.6704 30.5254C20.8396 30.6947 20.8396 30.969 20.6704 31.1382L16.4317 35.3769C16.2625 35.5461 15.9881 35.5461 15.8189 35.3769L1.32829 20.8863C-0.279351 19.2786 -0.279353 16.6721 1.32829 15.0645L7.77434 8.61844Z" fill="#D4DEE4"/>
</g>
<defs>
<clipPath id="clip0_7631_17921">
<rect width="166" height="36" fill="white"/>
</clipPath>
</defs>
</svg>
