<svg width="626" height="434" viewBox="0 0 626 434" fill="none" xmlns="http://www.w3.org/2000/svg">
<g opacity="0.2">
<path d="M622.466 307.381L544.722 307.381L466.979 244.593L466.979 181.805L544.722 181.805L622.466 244.593L622.466 307.381Z" stroke="#D4DEE4"/>
<path d="M466.979 307.381L389.236 307.381L311.492 244.593L311.492 181.805L389.236 181.805L466.979 244.593L466.979 307.381Z" stroke="#D4DEE4"/>
<path d="M622.466 432.958L544.722 432.958L466.979 370.17L466.979 307.382L544.722 307.382L622.466 370.17L622.466 432.958Z" stroke="#D4DEE4"/>
<path d="M466.979 432.958L389.236 432.958L311.492 370.17L311.492 307.382L389.236 307.382L466.979 370.17L466.979 432.958Z" stroke="#D4DEE4"/>
<path d="M777.954 307.381L700.211 307.381L622.467 244.593L622.467 181.805L700.21 181.805L777.954 244.593L777.954 307.381Z" stroke="#D4DEE4"/>
<path d="M777.954 432.958L700.211 432.958L622.467 370.17L622.467 307.382L700.21 307.382L777.954 370.17L777.954 432.958Z" stroke="#D4DEE4"/>
<path d="M777.954 56.228L700.211 56.228L622.467 -6.56016L622.467 -69.3483L700.21 -69.3484L777.954 -6.56017L777.954 56.228Z" stroke="#D4DEE4"/>
<path d="M777.954 181.805L700.211 181.805L622.467 119.017L622.467 56.2283L700.21 56.2283L777.954 119.016L777.954 181.805Z" stroke="#D4DEE4"/>
<path d="M622.466 56.228L544.722 56.228L466.978 -6.56016L466.978 -69.3483L544.722 -69.3484L622.466 -6.56017L622.466 56.228Z" stroke="#D4DEE4"/>
<path d="M466.979 56.228L389.236 56.228L311.492 -6.56016L311.492 -69.3483L389.236 -69.3484L466.979 -6.56017L466.979 56.228Z" stroke="#D4DEE4"/>
<path d="M622.466 181.805L544.722 181.805L466.978 119.017L466.978 56.2283L544.722 56.2283L622.466 119.016L622.466 181.805Z" stroke="#D4DEE4"/>
<path d="M466.979 181.805L389.236 181.805L311.492 119.017L311.492 56.2283L389.236 56.2283L466.979 119.016L466.979 181.805Z" stroke="#D4DEE4"/>
<path d="M311.494 56.228L233.75 56.228L156.006 -6.56016L156.006 -69.3483L233.75 -69.3484L311.494 -6.56017L311.494 56.228Z" stroke="#D4DEE4"/>
<path d="M156.007 56.228L78.2636 56.228L0.51975 -6.56016L0.519742 -69.3483L78.2636 -69.3484L156.007 -6.56017L156.007 56.228Z" stroke="#D4DEE4"/>
<path d="M311.494 181.805L233.75 181.805L156.006 119.017L156.006 56.2283L233.75 56.2283L311.494 119.016L311.494 181.805Z" stroke="#D4DEE4"/>
<path d="M156.007 181.805L78.2636 181.805L0.519758 119.017L0.519749 56.2283L78.2636 56.2283L156.007 119.016L156.007 181.805Z" stroke="#D4DEE4"/>
</g>
</svg>
