<svg width="24" height="25" viewBox="0 0 24 25" fill="none" xmlns="http://www.w3.org/2000/svg">
<path d="M20.6667 18.6892H11.3333L6 22.6892V18.6892H3.33333C2.97971 18.6892 2.64057 18.5487 2.39052 18.2987C2.14048 18.0486 2 17.7095 2 17.3559V4.02254C2 3.66892 2.14048 3.32978 2.39052 3.07973C2.64057 2.82968 2.97971 2.68921 3.33333 2.68921H20.6667C21.0203 2.68921 21.3594 2.82968 21.6095 3.07973C21.8595 3.32978 22 3.66892 22 4.02254V17.3559C22 17.7095 21.8595 18.0486 21.6095 18.2987C21.3594 18.5487 21.0203 18.6892 20.6667 18.6892Z" stroke="#FF3A2D" stroke-width="2" stroke-linecap="round" stroke-linejoin="round"/>
</svg>
