<svg width="92" height="91" viewBox="0 0 92 91" fill="none" xmlns="http://www.w3.org/2000/svg">
<g clip-path="url(#clip0_5505_56970)">
<circle cx="46.1592" cy="45.6368" r="45" fill="#FFECEF"/>
<mask id="mask0_5505_56970" style="mask-type:alpha" maskUnits="userSpaceOnUse" x="0" y="0" width="91" height="91">
<rect x="0.839844" y="0.486511" width="90" height="90" rx="45" fill="#E3EFFF"/>
</mask>
<g mask="url(#mask0_5505_56970)">
<line x1="63.1368" y1="-3.24567" x2="63.1368" y2="97.7428" stroke="#FB93A3" stroke-width="1.02564"/>
<line x1="79.8956" y1="-3.24567" x2="79.8956" y2="97.7428" stroke="#FB93A3" stroke-width="1.02564"/>
<line x1="46.3771" y1="-3.24567" x2="46.3771" y2="97.7428" stroke="#FB93A3" stroke-width="1.02564"/>
<line x1="12.8585" y1="-3.24567" x2="12.8585" y2="97.7428" stroke="#FB93A3" stroke-width="1.02564"/>
<line x1="29.6183" y1="-3.24567" x2="29.6183" y2="97.7428" stroke="#FB93A3" stroke-width="1.02564"/>
<line x1="-4.61719" y1="29.9722" x2="96.3471" y2="29.9722" stroke="#FB93A3" stroke-width="1.02564"/>
<line x1="-4.61719" y1="13.2086" x2="96.3471" y2="13.2086" stroke="#FB93A3" stroke-width="1.02564"/>
<line x1="-4.61719" y1="46.7357" x2="96.3471" y2="46.7357" stroke="#FB93A3" stroke-width="1.02564"/>
<line x1="-4.61719" y1="80.2626" x2="96.3471" y2="80.2626" stroke="#FB93A3" stroke-width="1.02564"/>
<line x1="-4.61719" y1="63.4992" x2="96.3471" y2="63.4992" stroke="#FB93A3" stroke-width="1.02564"/>
<rect x="0.297852" y="-0.148987" width="90.7854" height="90.7854" rx="45.3927" fill="url(#paint0_radial_5505_56970)"/>
</g>
<path d="M8.93066 25.2094C8.93066 23.5525 10.2738 22.2094 11.9307 22.2094H74.4153C76.0722 22.2094 77.4153 23.5525 77.4153 25.2094V73.552H8.93066V25.2094Z" fill="#F1F3F7" stroke="#6D758F" stroke-width="1.2"/>
<path d="M1.8418 72.2353C1.8418 71.7964 2.19762 71.4406 2.63654 71.4406H83.7114C84.1503 71.4406 84.5061 71.7964 84.5061 72.2353V72.2353C84.5061 75.7467 81.6596 78.5933 78.1482 78.5933H8.19975C4.68835 78.5933 1.8418 75.7467 1.8418 72.2353V72.2353Z" fill="#F1F3F7" stroke="#6D758F" stroke-width="1.2"/>
<path d="M52.1644 71.4405V72.2738C52.1644 73.7321 51.421 75.121 50.2594 75.121H36.0885C35.1128 75.121 34.1836 74.0099 34.1836 72.2738V71.4405H52.1644V71.4405Z" fill="white" stroke="#6D758F" stroke-width="1.2"/>
<path d="M17.3574 15.6805C17.3574 14.0237 18.7006 12.6805 20.3574 12.6805H82.8421C84.4989 12.6805 85.8421 14.0237 85.8421 15.6805V61.0232C85.8421 62.6801 84.4989 64.0232 82.8421 64.0232H20.3574C18.7006 64.0232 17.3574 62.6801 17.3574 61.0232V15.6805Z" fill="white" stroke="#B4B9C9" stroke-width="1.2"/>
<g filter="url(#filter0_d_5505_56970)">
<path d="M46.0914 22.3519H57.2127C57.8947 22.3519 58.5242 22.6163 58.9963 23.0924L66.8652 31.0262C67.3373 31.5023 67.5996 32.137 67.5996 32.8246V43.9849C67.5996 44.6725 67.3373 45.3072 66.8652 45.7833L59.1012 53.6114C58.6291 54.0874 57.9996 54.3519 57.3176 54.3519H46.0914C45.4094 54.3519 44.7799 54.0874 44.3078 53.6114L36.334 45.5717C35.8619 45.0957 35.5996 44.461 35.5996 43.7734V32.8246C35.5996 32.137 35.8619 31.5023 36.334 31.0262L44.2553 23.0924C44.7799 22.6163 45.4094 22.3519 46.0914 22.3519Z" fill="#FFECEF"/>
<path d="M46.0914 22.9519H57.2127C57.7348 22.9519 58.2109 23.1525 58.5703 23.5149L66.4392 31.4488C66.7987 31.8113 66.9996 32.2937 66.9996 32.8246V43.9849C66.9996 44.5159 66.7987 44.9982 66.4392 45.3608L58.6752 53.1889C58.3159 53.5512 57.8397 53.7519 57.3176 53.7519H46.0914C45.5693 53.7519 45.0932 53.5512 44.7338 53.1889L36.76 45.1492C36.4005 44.7867 36.1996 44.3043 36.1996 43.7734V32.8246C36.1996 32.294 36.4002 31.8119 36.7593 31.4495C36.7596 31.4492 36.7598 31.449 36.76 31.4488L44.669 23.5273C45.0928 23.1467 45.5783 22.9519 46.0914 22.9519Z" stroke="#FF2D46" stroke-width="1.2"/>
</g>
<path fill-rule="evenodd" clip-rule="evenodd" d="M47.5942 30.955C47.399 30.7597 47.0824 30.7597 46.8871 30.955L44.2034 33.6387C44.0081 33.834 44.0081 34.1506 44.2034 34.3458L47.8558 37.9983C48.0511 38.1935 48.0511 38.5101 47.8558 38.7054L44.2033 42.3579C44.0081 42.5531 44.0081 42.8697 44.2033 43.065L46.8871 45.7487C47.0823 45.9439 47.3989 45.9439 47.5942 45.7487L51.2467 42.0962C51.4419 41.9009 51.7585 41.9009 51.9538 42.0962L55.6064 45.7488C55.8016 45.9441 56.1182 45.9441 56.3135 45.7488L58.9972 43.0651C59.1925 42.8698 59.1925 42.5532 58.9972 42.358L55.3446 38.7054C55.1493 38.5101 55.1493 38.1935 55.3446 37.9983L58.9971 34.3457C59.1924 34.1504 59.1924 33.8339 58.9971 33.6386L56.3134 30.9549C56.1182 30.7596 55.8016 30.7596 55.6063 30.9549L51.9538 34.6074C51.7585 34.8027 51.4419 34.8027 51.2467 34.6074L47.5942 30.955Z" fill="white"/>
<path d="M51.9538 34.6074L51.5295 34.1832L51.9538 34.6074ZM55.6063 30.9549L56.0306 31.3791L55.6063 30.9549ZM58.9971 34.3457L59.4214 34.77L58.9971 34.3457ZM55.3446 37.9983L54.9203 37.574L55.3446 37.9983ZM51.2467 42.0962L51.6709 42.5205L51.2467 42.0962ZM47.5942 45.7487L47.1699 45.3244L47.5942 45.7487ZM44.2033 42.3579L44.6276 42.7821L44.2033 42.3579ZM47.5942 30.955L47.17 31.3793L47.5942 30.955ZM44.2034 34.3458L43.7791 34.7701L44.2034 34.3458ZM44.6277 34.063L47.3114 31.3793L46.4628 30.5307L43.7791 33.2144L44.6277 34.063ZM48.2801 37.574L44.6277 33.9216L43.7791 34.7701L47.4316 38.4225L48.2801 37.574ZM44.6276 42.7821L48.2801 39.1296L47.4316 38.2811L43.7791 41.9336L44.6276 42.7821ZM47.3113 45.3244L44.6276 42.6407L43.7791 43.4892L46.4628 46.1729L47.3113 45.3244ZM50.8224 41.6719L47.1699 45.3244L48.0184 46.1729L51.6709 42.5205L50.8224 41.6719ZM56.0306 45.3245L52.378 41.6719L51.5295 42.5205L55.1821 46.1731L56.0306 45.3245ZM58.5729 42.6408L55.8892 45.3245L56.7377 46.1731L59.4215 43.4893L58.5729 42.6408ZM54.9203 39.1296L58.5729 42.7822L59.4215 41.9337L55.7689 38.2811L54.9203 39.1296ZM58.5729 33.9214L54.9203 37.574L55.7689 38.4225L59.4214 34.77L58.5729 33.9214ZM55.8892 31.3791L58.5729 34.0629L59.4214 33.2143L56.7377 30.5306L55.8892 31.3791ZM52.378 35.0317L56.0306 31.3791L55.1821 30.5306L51.5295 34.1832L52.378 35.0317ZM47.17 31.3793L50.8224 35.0317L51.6709 34.1832L48.0185 30.5307L47.17 31.3793ZM51.5295 34.1832C51.5686 34.1441 51.6319 34.1441 51.6709 34.1832L50.8224 35.0317C51.252 35.4613 51.9485 35.4613 52.378 35.0317L51.5295 34.1832ZM56.7377 30.5306C56.3081 30.101 55.6116 30.101 55.1821 30.5306L56.0306 31.3791C55.9915 31.4182 55.9282 31.4182 55.8892 31.3791L56.7377 30.5306ZM59.4214 34.77C59.851 34.3404 59.851 33.6439 59.4214 33.2143L58.5729 34.0629C58.5338 34.0238 58.5338 33.9605 58.5729 33.9214L59.4214 34.77ZM55.7689 38.2811C55.8079 38.3202 55.8079 38.3835 55.7689 38.4225L54.9203 37.574C54.4907 38.0036 54.4907 38.7 54.9203 39.1296L55.7689 38.2811ZM59.4215 43.4893C59.851 43.0598 59.851 42.3633 59.4215 41.9337L58.5729 42.7822C58.5339 42.7432 58.5339 42.6799 58.5729 42.6408L59.4215 43.4893ZM55.1821 46.1731C55.6117 46.6026 56.3082 46.6026 56.7377 46.1731L55.8892 45.3245C55.9283 45.2855 55.9916 45.2855 56.0306 45.3245L55.1821 46.1731ZM51.6709 42.5205C51.6319 42.5595 51.5686 42.5595 51.5295 42.5205L52.378 41.6719C51.9485 41.2423 51.252 41.2423 50.8224 41.6719L51.6709 42.5205ZM46.4628 46.1729C46.8924 46.6025 47.5888 46.6025 48.0184 46.1729L47.1699 45.3244C47.2089 45.2854 47.2723 45.2854 47.3113 45.3244L46.4628 46.1729ZM43.7791 41.9336C43.3495 42.3632 43.3495 43.0597 43.7791 43.4892L44.6276 42.6407C44.6667 42.6798 44.6667 42.7431 44.6276 42.7821L43.7791 41.9336ZM47.4316 38.4225C47.3925 38.3835 47.3925 38.3202 47.4316 38.2811L48.2801 39.1296C48.7097 38.7001 48.7097 38.0036 48.2801 37.574L47.4316 38.4225ZM47.3114 31.3793C47.2723 31.4183 47.209 31.4183 47.17 31.3793L48.0185 30.5307C47.5889 30.1012 46.8924 30.1012 46.4628 30.5307L47.3114 31.3793ZM43.7791 33.2144C43.3496 33.644 43.3496 34.3405 43.7791 34.7701L44.6277 33.9216C44.6667 33.9606 44.6667 34.0239 44.6277 34.063L43.7791 33.2144Z" fill="#FF2D46"/>
</g>
<defs>
<filter id="filter0_d_5505_56970" x="29.903" y="20.0732" width="43.3931" height="43.3931" filterUnits="userSpaceOnUse" color-interpolation-filters="sRGB">
<feFlood flood-opacity="0" result="BackgroundImageFix"/>
<feColorMatrix in="SourceAlpha" type="matrix" values="0 0 0 0 0 0 0 0 0 0 0 0 0 0 0 0 0 0 127 0" result="hardAlpha"/>
<feOffset dy="3.41794"/>
<feGaussianBlur stdDeviation="2.84828"/>
<feComposite in2="hardAlpha" operator="out"/>
<feColorMatrix type="matrix" values="0 0 0 0 1 0 0 0 0 0.352941 0 0 0 0 0.396078 0 0 0 0.25 0"/>
<feBlend mode="normal" in2="BackgroundImageFix" result="effect1_dropShadow_5505_56970"/>
<feBlend mode="normal" in="SourceGraphic" in2="effect1_dropShadow_5505_56970" result="shape"/>
</filter>
<radialGradient id="paint0_radial_5505_56970" cx="0" cy="0" r="1" gradientUnits="userSpaceOnUse" gradientTransform="translate(45.6905 45.2437) rotate(90) scale(45.3927 45.3927)">
<stop stop-color="#FFEAEA" stop-opacity="0.28"/>
<stop offset="1" stop-color="#FFEAEA"/>
</radialGradient>
<clipPath id="clip0_5505_56970">
<rect width="92" height="91" fill="white"/>
</clipPath>
</defs>
</svg>
