<svg width="49" height="52" viewBox="0 0 49 52" fill="none" xmlns="http://www.w3.org/2000/svg">
<mask id="mask0_5505_56971" style="mask-type:alpha" maskUnits="userSpaceOnUse" x="0" y="0" width="49" height="49">
<rect y="0.486511" width="48.0115" height="48" rx="24" fill="#E3EFFF"/>
</mask>
<g mask="url(#mask0_5505_56971)">
<line x1="33.5109" y1="-1.50397" x2="33.5109" y2="52.3565" stroke="#FB93A3" stroke-width="1.10377"/>
<line x1="42.4513" y1="-1.50397" x2="42.4513" y2="52.3565" stroke="#FB93A3" stroke-width="1.10377"/>
<line x1="24.5704" y1="-1.50397" x2="24.5704" y2="52.3565" stroke="#FB93A3" stroke-width="1.10377"/>
<line x1="6.68958" y1="-1.50397" x2="6.68958" y2="52.3565" stroke="#FB93A3" stroke-width="1.10377"/>
<line x1="15.63" y1="-1.50397" x2="15.63" y2="52.3565" stroke="#FB93A3" stroke-width="1.10377"/>
<line x1="-2.91113" y1="15.9338" x2="50.9494" y2="15.9338" stroke="#FB93A3" stroke-width="1.10377"/>
<line x1="-2.91113" y1="6.99328" x2="50.9494" y2="6.99328" stroke="#FB93A3" stroke-width="1.10377"/>
<line x1="-2.91113" y1="24.8744" x2="50.9494" y2="24.8744" stroke="#FB93A3" stroke-width="1.10377"/>
<line x1="-2.91113" y1="42.7554" x2="50.9494" y2="42.7554" stroke="#FB93A3" stroke-width="1.10377"/>
<line x1="-2.91113" y1="33.8149" x2="50.9494" y2="33.8149" stroke="#FB93A3" stroke-width="1.10377"/>
<rect x="-0.289062" y="0.147522" width="48.4305" height="48.4189" rx="24.2094" fill="url(#paint0_radial_5505_56971)"/>
</g>
<g filter="url(#filter0_d_5505_56971)">
<path d="M18.0908 7.10535H30.0593C30.7932 7.10535 31.4707 7.38996 31.9788 7.90225L40.447 16.4405C40.9551 16.9528 41.2374 17.6359 41.2374 18.3758V30.3863C41.2374 31.1263 40.9551 31.8094 40.447 32.3216L32.0917 40.7461C31.5836 41.2583 30.9061 41.543 30.1722 41.543H18.0908C17.3569 41.543 16.6794 41.2583 16.1714 40.7461L7.59017 32.094C7.08208 31.5817 6.7998 30.8986 6.7998 30.1586V18.3758C6.7998 17.6359 7.08208 16.9528 7.59017 16.4405L16.1149 7.90225C16.6794 7.38996 17.3569 7.10535 18.0908 7.10535Z" fill="#FFECEF"/>
<path d="M18.0908 7.75105H30.0593C30.6212 7.75105 31.1336 7.967 31.5203 8.35695L39.9886 16.8952C40.3755 17.2853 40.5917 17.8045 40.5917 18.3758V30.3863C40.5917 30.9577 40.3755 31.4768 39.9886 31.8669L31.6332 40.2914C31.2465 40.6813 30.7341 40.8973 30.1722 40.8973H18.0908C17.5289 40.8973 17.0166 40.6813 16.6298 40.2914L8.04863 31.6393C7.66168 31.2491 7.44551 30.73 7.44551 30.1586V18.3758C7.44551 17.8048 7.66145 17.2859 8.04799 16.8958C8.04821 16.8956 8.04842 16.8954 8.04863 16.8952L16.56 8.3703C17.0161 7.96068 17.5386 7.75105 18.0908 7.75105Z" stroke="#FF2D46" stroke-width="1.29141"/>
</g>
<path fill-rule="evenodd" clip-rule="evenodd" d="M19.7088 16.3639C19.4986 16.1537 19.1579 16.1537 18.9478 16.3639L16.0596 19.252C15.8495 19.4621 15.8495 19.8028 16.0596 20.013L19.9902 23.9435C20.2003 24.1537 20.2003 24.4944 19.9902 24.7045L16.0593 28.6354C15.8492 28.8455 15.8492 29.1862 16.0593 29.3964L18.9475 32.2845C19.1576 32.4946 19.4983 32.4946 19.7084 32.2845L23.6393 28.3536C23.8495 28.1435 24.1902 28.1435 24.4003 28.3536L28.3312 32.2846C28.5414 32.4947 28.8821 32.4947 29.0922 32.2846L31.9804 29.3964C32.1905 29.1863 32.1905 28.8456 31.9804 28.6355L28.0494 24.7045C27.8393 24.4944 27.8393 24.1537 28.0494 23.9435L31.98 20.0129C32.1902 19.8028 32.1902 19.4621 31.98 19.2519L29.0919 16.3638C28.8818 16.1536 28.5411 16.1536 28.3309 16.3638L24.4003 20.2944C24.1902 20.5045 23.8495 20.5045 23.6393 20.2944L19.7088 16.3639Z" fill="white"/>
<path d="M24.4003 20.2944L23.9437 19.8378L24.4003 20.2944ZM28.3309 16.3638L28.7875 16.8204L28.3309 16.3638ZM31.98 20.0129L32.4366 20.4695L31.98 20.0129ZM28.0494 23.9435L27.5928 23.487L28.0494 23.9435ZM28.3312 32.2846L27.8747 32.7412L28.3312 32.2846ZM23.6393 28.3536L24.0959 28.8102L23.6393 28.3536ZM19.7084 32.2845L19.2519 31.8279L19.7084 32.2845ZM16.0593 28.6354L16.5159 29.092L16.0593 28.6354ZM16.5162 19.7086L19.4044 16.8204L18.4912 15.9073L15.6031 18.7954L16.5162 19.7086ZM20.4468 23.487L16.5162 19.5564L15.6031 20.4696L19.5336 24.4001L20.4468 23.487ZM16.5159 29.092L20.4468 25.1611L19.5336 24.2479L15.6027 28.1788L16.5159 29.092ZM19.4041 31.8279L16.5159 28.9398L15.6027 29.8529L18.4909 32.7411L19.4041 31.8279ZM23.1827 27.897L19.2519 31.8279L20.165 32.7411L24.0959 28.8102L23.1827 27.897ZM28.7878 31.828L24.8569 27.897L23.9437 28.8102L27.8747 32.7412L28.7878 31.828ZM31.5238 28.9398L28.6356 31.828L29.5488 32.7412L32.437 29.853L31.5238 28.9398ZM27.5928 25.1611L31.5238 29.092L32.437 28.1789L28.506 24.2479L27.5928 25.1611ZM31.5235 19.5563L27.5928 23.487L28.506 24.4001L32.4366 20.4695L31.5235 19.5563ZM28.6353 16.8204L31.5235 19.7085L32.4366 18.7953L29.5485 15.9072L28.6353 16.8204ZM24.8569 20.751L28.7875 16.8204L27.8743 15.9072L23.9437 19.8378L24.8569 20.751ZM19.2522 16.8204L23.1827 20.751L24.0959 19.8378L20.1653 15.9073L19.2522 16.8204ZM23.9437 19.8378C23.9857 19.7958 24.0539 19.7958 24.0959 19.8378L23.1827 20.751C23.645 21.2133 24.3946 21.2133 24.8569 20.751L23.9437 19.8378ZM29.5485 15.9072C29.0862 15.4449 28.3366 15.4449 27.8743 15.9072L28.7875 16.8204C28.7455 16.8624 28.6773 16.8624 28.6353 16.8204L29.5485 15.9072ZM32.4366 20.4695C32.8989 20.0072 32.8989 19.2576 32.4366 18.7953L31.5235 19.7085C31.4814 19.6665 31.4814 19.5983 31.5235 19.5563L32.4366 20.4695ZM28.506 24.2479C28.548 24.2899 28.548 24.3581 28.506 24.4001L27.5928 23.487C27.1305 23.9493 27.1305 24.6988 27.5928 25.1611L28.506 24.2479ZM32.437 29.853C32.8993 29.3907 32.8992 28.6412 32.437 28.1789L31.5238 29.092C31.4818 29.05 31.4818 28.9819 31.5238 28.9398L32.437 29.853ZM27.8747 32.7412C28.337 33.2035 29.0865 33.2035 29.5488 32.7412L28.6356 31.828C28.6777 31.786 28.7458 31.786 28.7878 31.828L27.8747 32.7412ZM24.0959 28.8102C24.0539 28.8522 23.9857 28.8522 23.9437 28.8102L24.8569 27.897C24.3946 27.4347 23.645 27.4347 23.1827 27.897L24.0959 28.8102ZM18.4909 32.7411C18.9532 33.2034 19.7027 33.2034 20.165 32.7411L19.2519 31.8279C19.2939 31.7859 19.362 31.7859 19.4041 31.8279L18.4909 32.7411ZM15.6027 28.1788C15.1404 28.6411 15.1404 29.3906 15.6027 29.8529L16.5159 28.9398C16.5579 28.9818 16.5579 29.0499 16.5159 29.092L15.6027 28.1788ZM19.5336 24.4001C19.4916 24.3581 19.4916 24.29 19.5336 24.2479L20.4468 25.1611C20.9091 24.6988 20.9091 23.9493 20.4468 23.487L19.5336 24.4001ZM19.4044 16.8204C19.3623 16.8625 19.2942 16.8625 19.2522 16.8204L20.1653 15.9073C19.703 15.445 18.9535 15.445 18.4912 15.9073L19.4044 16.8204ZM15.6031 18.7954C15.1408 19.2577 15.1408 20.0073 15.6031 20.4696L16.5162 19.5564C16.5583 19.5984 16.5583 19.6666 16.5162 19.7086L15.6031 18.7954Z" fill="#FF2D46"/>
<defs>
<filter id="filter0_d_5505_56971" x="0.6693" y="4.65314" width="46.6985" height="46.6986" filterUnits="userSpaceOnUse" color-interpolation-filters="sRGB">
<feFlood flood-opacity="0" result="BackgroundImageFix"/>
<feColorMatrix in="SourceAlpha" type="matrix" values="0 0 0 0 0 0 0 0 0 0 0 0 0 0 0 0 0 0 127 0" result="hardAlpha"/>
<feOffset dy="3.6783"/>
<feGaussianBlur stdDeviation="3.06525"/>
<feComposite in2="hardAlpha" operator="out"/>
<feColorMatrix type="matrix" values="0 0 0 0 1 0 0 0 0 0.352941 0 0 0 0 0.396078 0 0 0 0.25 0"/>
<feBlend mode="normal" in2="BackgroundImageFix" result="effect1_dropShadow_5505_56971"/>
<feBlend mode="normal" in="SourceGraphic" in2="effect1_dropShadow_5505_56971" result="shape"/>
</filter>
<radialGradient id="paint0_radial_5505_56971" cx="0" cy="0" r="1" gradientUnits="userSpaceOnUse" gradientTransform="translate(23.9262 24.357) rotate(90) scale(24.2094 24.2152)">
<stop stop-color="#FFEAEA" stop-opacity="0.28"/>
<stop offset="1" stop-color="#FFEAEA"/>
</radialGradient>
</defs>
</svg>
