<svg width="52" height="52" viewBox="0 0 52 52" fill="none" xmlns="http://www.w3.org/2000/svg">
<path d="M52 26C52 11.6406 40.3594 0 26 0C11.6406 0 0 11.6406 0 26C0 38.9771 9.50777 49.7336 21.9375 51.6841V33.5156H15.3359V26H21.9375V20.2719C21.9375 13.7556 25.8192 10.1563 31.7581 10.1563C34.6029 10.1563 37.5781 10.6641 37.5781 10.6641V17.0625H34.2997C31.07 17.0625 30.0625 19.0668 30.0625 21.123V26H37.2734L36.1207 33.5156H30.0625V51.6841C42.4922 49.7336 52 38.9777 52 26Z" fill="#0E181E"/>
<path d="M36.1202 33.5156L37.273 26H30.062V21.123C30.062 19.0668 31.0695 17.0625 34.2992 17.0625H37.5776V10.6641C37.5776 10.6641 34.6024 10.1562 31.7576 10.1562C25.8187 10.1562 21.937 13.7556 21.937 20.2719V26H15.3354V33.5156H21.937V51.6841C23.2609 51.8918 24.6172 52 25.9995 52C27.3818 52 28.7381 51.8918 30.062 51.6841V33.5156H36.1202Z" fill="#F6F8F9"/>
</svg>
