<svg width="240" height="46" viewBox="0 0 240 46" fill="none" xmlns="http://www.w3.org/2000/svg">
<g clip-path="url(#clip0_7171_32777)">
<rect x="9.39966" y="22.8292" width="9.01456" height="9.01456" fill="#FF3A2D"/>
<rect x="0.385132" y="31.8438" width="9.01456" height="9.01456" fill="#FF3A2D"/>
<path d="M0.385132 31.8437L9.39969 22.8292V31.8437H0.385132Z" fill="#FF3A2D"/>
<path d="M9.39963 40.8583L18.4142 31.8437L9.39963 31.8437L9.39963 40.8583Z" fill="#FF3A2D"/>
<rect x="9.39966" y="4.80005" width="9.01456" height="9.01456" fill="#FF3A2D"/>
<rect x="0.385132" y="13.8146" width="9.01456" height="9.01456" fill="#FF3A2D"/>
<path d="M0.385132 13.8146L9.39969 4.80005V13.8146H0.385132Z" fill="#FF3A2D"/>
<path d="M9.39963 22.8292L18.4142 13.8146L9.39963 13.8146L9.39963 22.8292Z" fill="#FF3A2D"/>
<rect x="27.4288" y="22.8292" width="9.01456" height="9.01456" fill="#FF3A2D"/>
<rect x="18.4142" y="31.8438" width="9.01456" height="9.01456" fill="#FF3A2D"/>
<path d="M18.4142 31.8437L27.4287 22.8292V31.8437H18.4142Z" fill="#FF3A2D"/>
<path d="M27.4288 40.8583L36.4434 31.8437L27.4288 31.8437L27.4288 40.8583Z" fill="#FF3A2D"/>
<rect x="27.4288" y="4.80005" width="9.01456" height="9.01456" fill="#FF3A2D"/>
<rect x="18.4142" y="13.8146" width="9.01456" height="9.01456" fill="#FF3A2D"/>
<path d="M18.4142 13.8146L27.4287 4.80005V13.8146H18.4142Z" fill="#FF3A2D"/>
<path d="M27.4288 22.8292L36.4434 13.8146L27.4288 13.8146L27.4288 22.8292Z" fill="#FF3A2D"/>
</g>
<path d="M52.8065 33.5V9.18245H58.0103V33.5H52.8065ZM62.7295 33.5V15.6204H67.4329L67.6331 18.8561H67.8332C68.3225 17.6775 69.0786 16.7879 70.1015 16.1875C71.1245 15.5871 72.2698 15.2869 73.5373 15.2869C74.7382 15.2869 75.8056 15.5315 76.7397 16.0207C77.6959 16.51 78.452 17.2994 79.008 18.3891C79.5639 19.4565 79.8419 20.8909 79.8419 22.6922V33.5H74.9384V23.7596C74.9384 22.2474 74.6715 21.1244 74.1378 20.3905C73.6041 19.6567 72.7479 19.2897 71.5693 19.2897C70.3017 19.2897 69.3232 19.7234 68.6338 20.5907C67.9667 21.4357 67.6331 22.4253 67.6331 23.5595V33.5H62.7295ZM89.9422 33.8002C87.8073 33.8002 86.0838 33.033 84.7718 31.4986C83.4597 29.9419 82.8037 27.6291 82.8037 24.5602C82.8037 21.4691 83.4597 19.1563 84.7718 17.6219C86.0838 16.0652 87.8073 15.2869 89.9422 15.2869C91.3209 15.2869 92.4996 15.5982 93.478 16.2209C94.4788 16.8435 95.1904 17.6775 95.6129 18.7227H95.8798V9.18245H100.783V33.5H96.0466L95.8798 30.3644H95.6129C95.1904 31.3874 94.4788 32.2213 93.478 32.8662C92.4996 33.4889 91.3209 33.8002 89.9422 33.8002ZM91.8102 29.8307C92.7219 29.8307 93.4669 29.6194 94.0451 29.1969C94.6455 28.7744 95.0903 28.2295 95.3794 27.5624C95.6685 26.873 95.8131 26.1503 95.8131 25.3942V23.6929C95.8131 22.9146 95.6685 22.1918 95.3794 21.5247C95.0903 20.8575 94.6455 20.3127 94.0451 19.8902C93.4669 19.4677 92.7219 19.2564 91.8102 19.2564C90.6093 19.2564 89.6419 19.69 88.9081 20.5573C88.1742 21.4024 87.8073 22.7367 87.8073 24.5602C87.8073 26.3615 88.1742 27.6958 88.9081 28.5631C89.6419 29.4082 90.6093 29.8307 91.8102 29.8307ZM111.185 33.8002C109.116 33.8002 107.537 33.1998 106.448 31.9989C105.358 30.7981 104.813 29.0523 104.813 26.7618V15.6204H109.717V25.4609C109.717 26.8841 109.973 27.9738 110.484 28.7299C111.018 29.4638 111.896 29.8307 113.119 29.8307C114.365 29.8307 115.321 29.4082 115.988 28.5631C116.677 27.6958 117.022 26.6729 117.022 25.4942V15.6204H121.926V33.5H117.222L117.022 30.231H116.789C116.366 31.3874 115.643 32.2769 114.62 32.8996C113.62 33.5 112.474 33.8002 111.185 33.8002ZM133.131 33.8336C130.529 33.8336 128.516 33.2887 127.093 32.1991C125.692 31.0871 125.003 29.6417 125.025 27.8626H129.828C129.85 28.8188 130.184 29.5082 130.829 29.9308C131.496 30.331 132.308 30.5312 133.264 30.5312C134.265 30.5312 135.021 30.3644 135.532 30.0308C136.044 29.675 136.3 29.1969 136.3 28.5965C136.3 27.7736 135.999 27.2399 135.399 26.9953C134.821 26.7507 133.898 26.5394 132.63 26.3615C131.318 26.1836 130.117 25.9279 129.028 25.5943C127.938 25.2385 127.071 24.7048 126.426 23.9931C125.803 23.2815 125.492 22.2697 125.492 20.9576C125.492 19.0674 126.203 17.6552 127.627 16.7212C129.072 15.765 130.962 15.2869 133.297 15.2869C135.588 15.2869 137.411 15.7872 138.768 16.7879C140.125 17.7664 140.825 19.1452 140.87 20.9243H136.066C136.066 20.1682 135.799 19.59 135.265 19.1897C134.754 18.7894 134.053 18.5892 133.164 18.5892C132.252 18.5892 131.563 18.7671 131.096 19.123C130.629 19.4565 130.395 19.9013 130.395 20.4573C130.395 21.1244 130.696 21.5914 131.296 21.8583C131.896 22.1251 132.853 22.3475 134.165 22.5254C135.099 22.6588 135.988 22.8256 136.833 23.0258C137.678 23.2037 138.423 23.4928 139.068 23.8931C139.735 24.2711 140.258 24.8048 140.636 25.4942C141.036 26.1614 141.236 27.0398 141.236 28.1295C141.236 30.0864 140.514 31.5319 139.068 32.4659C137.623 33.3777 135.644 33.8336 133.131 33.8336ZM150.431 33.5C149.23 33.5 148.296 33.3221 147.629 32.9663C146.962 32.6105 146.495 32.1101 146.228 31.4652C145.983 30.7981 145.861 30.0197 145.861 29.1302V19.5566H142.659V15.6204H145.861V10.7502L150.731 10.2832V15.6204H154.334V19.5566H150.731V28.1962C150.731 28.7299 150.854 29.0857 151.098 29.2636C151.343 29.4415 151.699 29.5305 152.166 29.5305H154.334V33.5H150.431ZM157.362 33.5V15.6204H161.798L161.998 18.4892H162.165C162.565 17.3328 163.199 16.5322 164.066 16.0874C164.956 15.6204 165.968 15.3869 167.102 15.3869H168.103V19.9903H167.002C165.356 19.9903 164.167 20.3572 163.433 21.091C162.699 21.8027 162.31 22.8256 162.265 24.1599V33.5H157.362ZM170.685 13.3188V9.18245H175.589V13.3188H170.685ZM170.685 33.5V15.6204H175.589V33.5H170.685ZM185.877 33.8002C183.742 33.8002 182.019 33.033 180.707 31.4986C179.395 29.9419 178.739 27.6291 178.739 24.5602C178.739 21.4691 179.395 19.1563 180.707 17.6219C182.019 16.0652 183.742 15.2869 185.877 15.2869C187.256 15.2869 188.435 15.5982 189.413 16.2209C190.414 16.8435 191.125 17.6775 191.548 18.7227H191.815L192.015 15.6204H196.718V33.5H191.815V30.3644H191.548C191.125 31.3874 190.414 32.2213 189.413 32.8662C188.435 33.4889 187.256 33.8002 185.877 33.8002ZM187.745 29.8307C188.657 29.8307 189.402 29.6194 189.98 29.1969C190.581 28.7744 191.025 28.2295 191.315 27.5624C191.604 26.873 191.748 26.1503 191.748 25.3942V23.6929C191.748 22.9146 191.604 22.1918 191.315 21.5247C191.025 20.8575 190.581 20.3127 189.98 19.8902C189.402 19.4677 188.657 19.2564 187.745 19.2564C186.544 19.2564 185.577 19.69 184.843 20.5573C184.109 21.4024 183.742 22.7367 183.742 24.5602C183.742 26.3615 184.109 27.6958 184.843 28.5631C185.577 29.4082 186.544 29.8307 187.745 29.8307ZM200.915 33.5V9.18245H205.819V33.5H200.915ZM215.003 33.5L223.876 20.4906L215.97 9.18245H222.075L227.178 17.1215H227.312L232.416 9.18245H238.52L230.714 20.4573L239.587 33.5H233.416L227.312 24.1933H227.178L221.041 33.5H215.003Z" fill="white"/>
<defs>
<clipPath id="clip0_7171_32777">
<rect width="36.8283" height="36.8283" fill="white" transform="translate(0 4.58582)"/>
</clipPath>
</defs>
</svg>
