<svg width="576" height="376" viewBox="0 0 576 376" fill="none" xmlns="http://www.w3.org/2000/svg">
<g opacity="0.2">
<path d="M-46.7123 126.468H31.0316L108.775 189.256L108.775 252.045H31.0316L-46.7123 189.256V126.468Z" stroke="#D4DEE4"/>
<path d="M108.774 126.468H186.518L264.262 189.256L264.262 252.045H186.518L108.774 189.256V126.468Z" stroke="#D4DEE4"/>
<path d="M-46.7123 0.891357H31.0316L108.775 63.6795L108.775 126.468H31.0316L-46.7123 63.6795V0.891357Z" stroke="#D4DEE4"/>
<path d="M108.774 0.891357H186.518L264.262 63.6795L264.262 126.468H186.518L108.774 63.6795V0.891357Z" stroke="#D4DEE4"/>
<path d="M-46.7123 252.044H31.0316L108.775 314.833L108.775 377.621H31.0316L-46.7123 314.833V252.044Z" stroke="#D4DEE4"/>
<path d="M108.774 252.044H186.518L264.262 314.833L264.262 377.621H186.518L108.774 314.833V252.044Z" stroke="#D4DEE4"/>
<path d="M264.26 252.044H342.004L419.748 314.833L419.748 377.621H342.004L264.26 314.833V252.044Z" stroke="#D4DEE4"/>
<path d="M419.747 252.044H497.491L575.234 314.833L575.234 377.621H497.491L419.747 314.833V252.044Z" stroke="#D4DEE4"/>
</g>
</svg>
