<svg width="30" height="30" viewBox="0 0 30 30" fill="none" xmlns="http://www.w3.org/2000/svg">
<g opacity="0.3" filter="url(#filter0_f_5534_57329)">
<mask id="path-1-inside-1_5534_57329" fill="white">
<path d="M5.0341 19.906H4.36673C2.89243 19.906 1.69727 18.711 1.69727 17.2367V5.89199C1.69727 4.41776 2.89243 3.22266 4.36673 3.22266H18.3814C19.8558 3.22266 21.0509 4.41776 21.0509 5.89199V9.22867"/>
</mask>
<path d="M5.0341 21.4355C5.87879 21.4355 6.56355 20.7507 6.56355 19.906C6.56355 19.0613 5.87879 18.3766 5.0341 18.3766V21.4355ZM19.5215 9.22867C19.5215 10.0734 20.2062 10.7581 21.0509 10.7581C21.8956 10.7581 22.5804 10.0734 22.5804 9.22867H19.5215ZM5.0341 18.3766H4.36673V21.4355H5.0341V18.3766ZM4.36673 18.3766C3.73703 18.3766 3.22672 17.8662 3.22672 17.2367H0.167816C0.167816 19.5557 2.04782 21.4355 4.36673 21.4355V18.3766ZM3.22672 17.2367V5.89199H0.167816V17.2367H3.22672ZM3.22672 5.89199C3.22672 5.26252 3.73705 4.75211 4.36673 4.75211V1.69321C2.04781 1.69321 0.167816 3.573 0.167816 5.89199H3.22672ZM4.36673 4.75211H18.3814V1.69321H4.36673V4.75211ZM18.3814 4.75211C19.0112 4.75211 19.5215 5.26251 19.5215 5.89199H22.5804C22.5804 3.57301 20.7004 1.69321 18.3814 1.69321V4.75211ZM19.5215 5.89199V9.22867H22.5804V5.89199H19.5215Z" fill="#8DC1FF" mask="url(#path-1-inside-1_5534_57329)"/>
<path d="M8.90234 14.9312C8.90234 13.7101 9.89227 12.7202 11.1135 12.7202H25.4859C26.7071 12.7202 27.697 13.7101 27.697 14.9312V24.8809C27.697 26.102 26.7071 27.0919 25.4859 27.0919H11.1135C9.89227 27.0919 8.90234 26.102 8.90234 24.8809V14.9312Z" stroke="#2388FF" stroke-width="1.52945"/>
</g>
<mask id="path-4-inside-2_5534_57329" fill="white">
<path d="M4.75871 19.5914H4.09134C2.61704 19.5914 1.42188 18.3964 1.42188 16.9221V5.57742C1.42188 4.10318 2.61704 2.90808 4.09134 2.90808H18.1061C19.5804 2.90808 20.7755 4.10318 20.7755 5.57742V8.91409"/>
</mask>
<path d="M4.75871 21.1209C5.6034 21.1209 6.28816 20.4361 6.28816 19.5914C6.28816 18.7468 5.6034 18.062 4.75871 18.062V21.1209ZM19.2461 8.91409C19.2461 9.75878 19.9308 10.4435 20.7755 10.4435C21.6202 10.4435 22.305 9.75878 22.305 8.91409H19.2461ZM4.75871 18.062H4.09134V21.1209H4.75871V18.062ZM4.09134 18.062C3.46164 18.062 2.95132 17.5516 2.95132 16.9221H-0.107575C-0.107575 19.2412 1.77243 21.1209 4.09134 21.1209V18.062ZM2.95132 16.9221V5.57742H-0.107575V16.9221H2.95132ZM2.95132 5.57742C2.95132 4.94795 3.46166 4.43753 4.09134 4.43753V1.37863C1.77242 1.37863 -0.107575 3.25842 -0.107575 5.57742H2.95132ZM4.09134 4.43753H18.1061V1.37863H4.09134V4.43753ZM18.1061 4.43753C18.7358 4.43753 19.2461 4.94793 19.2461 5.57742H22.305C22.305 3.25844 20.425 1.37863 18.1061 1.37863V4.43753ZM19.2461 5.57742V8.91409H22.305V5.57742H19.2461Z" fill="#8DC1FF" mask="url(#path-4-inside-2_5534_57329)"/>
<path d="M8.62695 14.6167C8.62695 13.3955 9.61688 12.4056 10.8381 12.4056H25.2105C26.4317 12.4056 27.4216 13.3955 27.4216 14.6167V24.5663C27.4216 25.7875 26.4317 26.7773 25.2105 26.7773H10.8381C9.61688 26.7773 8.62695 25.7875 8.62695 24.5663V14.6167Z" fill="#E3EFFF" stroke="#2388FF" stroke-width="1.52945"/>
<defs>
<filter id="filter0_f_5534_57329" x="0.197266" y="1.72266" width="29.7637" height="27.634" filterUnits="userSpaceOnUse" color-interpolation-filters="sRGB">
<feFlood flood-opacity="0" result="BackgroundImageFix"/>
<feBlend mode="normal" in="SourceGraphic" in2="BackgroundImageFix" result="shape"/>
<feGaussianBlur stdDeviation="0.75" result="effect1_foregroundBlur_5534_57329"/>
</filter>
</defs>
</svg>
