<svg width="20" height="15" viewBox="0 0 20 15" fill="none" xmlns="http://www.w3.org/2000/svg">
<path d="M15.8558 7.24256C16.9282 7.31175 17.7757 7.67499 18.3984 8.33228C19.0211 8.95498 19.3325 9.76794 19.3325 10.7712C19.3325 11.9474 18.9692 12.8468 18.2428 13.4695C17.5163 14.0922 16.686 14.4036 15.752 14.4036C15.6482 14.4036 15.5444 14.4036 15.4406 14.4036C14.7141 14.4036 14.0915 14.2479 13.5725 13.9366C13.0882 13.6252 12.6731 13.2447 12.3271 12.7949C12.0158 12.3106 11.7909 11.7744 11.6526 11.1863C11.5142 10.5636 11.445 9.94091 11.445 9.31822C11.445 8.38417 11.618 7.43283 11.9639 6.46419C12.3098 5.49555 12.7769 4.5961 13.365 3.76583C13.9877 2.90098 14.6796 2.1572 15.4406 1.5345C16.2363 0.877211 17.0839 0.392892 17.9833 0.081543L19.4882 2.1572C18.6233 2.7453 17.8622 3.48908 17.2049 4.38853C16.5476 5.25339 16.0979 6.20473 15.8558 7.24256ZM5.21802 7.24256C6.29044 7.31175 7.138 7.67499 7.7607 8.33228C8.3834 8.95498 8.69475 9.76794 8.69475 10.7712C8.69475 11.9474 8.3315 12.8468 7.60503 13.4695C6.87855 14.0922 6.03099 14.4036 5.06235 14.4036C4.95856 14.4036 4.85478 14.4036 4.751 14.4036C4.02452 14.4036 3.40182 14.2479 2.88291 13.9366C2.39859 13.6252 2.00075 13.2447 1.6894 12.7949C1.37806 12.3106 1.15319 11.7744 1.01482 11.1863C0.87644 10.5636 0.807251 9.94091 0.807251 9.31822C0.807251 8.38417 0.980222 7.43283 1.32617 6.46419C1.67211 5.49555 2.13913 4.5961 2.72723 3.76583C3.34993 2.90098 4.04182 2.1572 4.80289 1.5345C5.59856 0.877211 6.44612 0.392892 7.34557 0.081543L8.85042 2.1572C7.98556 2.7453 7.22449 3.48908 6.5672 4.38853C5.90991 5.25339 5.46018 6.20473 5.21802 7.24256Z" fill="#FF3A2D"/>
</svg>
