<svg width="23" height="22" viewBox="0 0 23 22" fill="none" xmlns="http://www.w3.org/2000/svg">
<path d="M20.9635 6.41673H2.63021C2.16997 6.41673 1.79688 6.78982 1.79688 7.25006V19.7501C1.79688 20.2103 2.16997 20.5834 2.63021 20.5834H20.9635C21.4238 20.5834 21.7969 20.2103 21.7969 19.7501V7.25006C21.7969 6.78982 21.4238 6.41673 20.9635 6.41673Z" stroke="#FF3A2D" stroke-width="2" stroke-linecap="round" stroke-linejoin="round"/>
<path d="M7.63086 6.41673V5.58339C7.63086 4.47832 8.06985 3.41852 8.85125 2.63711C9.63265 1.85571 10.6925 1.41673 11.7975 1.41673C12.9026 1.41673 13.9624 1.85571 14.7438 2.63711C15.5252 3.41852 15.9642 4.47832 15.9642 5.58339V6.41673" stroke="#FF3A2D" stroke-width="2" stroke-linecap="round" stroke-linejoin="round"/>
</svg>
