<svg width="52" height="52" viewBox="0 0 52 52" fill="none" xmlns="http://www.w3.org/2000/svg">
<path d="M33.8704 7.80823V7.7998H36.0648L36.8666 7.95994C37.4012 8.06391 37.8865 8.20015 38.3225 8.36872C38.7586 8.53729 39.1806 8.73396 39.5886 8.95871C39.9965 9.18345 40.3665 9.41245 40.6985 9.64562C41.0276 9.87601 41.323 10.1204 41.5847 10.3789C41.8434 10.6402 42.2472 10.7076 42.7958 10.5812C43.3444 10.4547 43.9352 10.2791 44.5682 10.0544C45.2012 9.82965 45.8272 9.5768 46.4461 9.29584C47.065 9.01488 47.442 8.83649 47.5771 8.76064C47.7093 8.682 47.7797 8.63986 47.7881 8.63421L47.7965 8.62157L47.8387 8.6005L47.8809 8.57943L47.9231 8.55836L47.9653 8.53729L47.9737 8.52464L47.9864 8.51622L47.9991 8.50779L48.0075 8.49515L48.0497 8.4825L48.0919 8.47407L48.0835 8.53729L48.0708 8.6005L48.0497 8.66371L48.0286 8.72693L48.0075 8.76907L47.9864 8.81121L47.9653 8.87442C47.9512 8.91656 47.9372 8.97274 47.9231 9.04299C47.909 9.11324 47.7754 9.39416 47.5222 9.88583C47.269 10.3775 46.9525 10.8762 46.5727 11.3819C46.1929 11.8876 45.8525 12.2696 45.5515 12.5281C45.2476 12.7894 45.0465 12.972 44.948 13.076C44.8495 13.1827 44.73 13.281 44.5893 13.371L44.3783 13.51L44.3361 13.5311L44.2939 13.5522L44.2855 13.5648L44.2728 13.5732L44.2601 13.5817L44.2517 13.5943L44.2095 13.6154L44.1673 13.6365L44.1589 13.6491L44.1462 13.6575L44.1335 13.666L44.1251 13.6786L44.1167 13.6912L44.104 13.6997L44.0913 13.7081L44.0829 13.7207H44.2939L45.4755 13.4679C46.2632 13.2993 47.0158 13.0956 47.7332 12.8568L48.8726 12.4776L48.9992 12.4354L49.0625 12.4143L49.1047 12.3933L49.1469 12.3722L49.1891 12.3511L49.2313 12.3301L49.3157 12.3174L49.4001 12.309V12.3933L49.379 12.4017L49.3579 12.4143L49.3495 12.427L49.3368 12.4354L49.3241 12.4438L49.3157 12.4565L49.3073 12.4691L49.2946 12.4776L49.2819 12.486L49.2735 12.4986L49.2651 12.5113L49.2524 12.5197L49.2313 12.5618L49.2102 12.604L49.1975 12.6124C49.1919 12.6208 49.0133 12.8596 48.6616 13.3288C48.3099 13.8008 48.12 14.0396 48.0919 14.0452C48.0638 14.0537 48.0244 14.0958 47.9737 14.1717C47.9259 14.2503 47.6277 14.5636 47.0791 15.1114C46.5305 15.6593 45.9932 16.1467 45.4671 16.5737C44.9382 17.0036 44.6709 17.5318 44.6653 18.1583C44.6568 18.782 44.6245 19.4872 44.5682 20.2738C44.5119 21.0605 44.4064 21.9103 44.2517 22.8234C44.097 23.7365 43.8578 24.7689 43.5343 25.9208C43.2108 27.0727 42.8169 28.1965 42.3527 29.2922C41.8885 30.3878 41.4032 31.3711 40.8968 32.2421C40.3904 33.113 39.9262 33.8505 39.5042 34.4545C39.0822 35.0586 38.6531 35.6275 38.217 36.1613C37.781 36.6951 37.2296 37.2963 36.5628 37.9649C35.8933 38.6308 35.5275 38.996 35.4656 39.0606C35.4009 39.1225 35.1253 39.3529 34.6385 39.7518C34.1546 40.1535 33.6341 40.5552 33.0771 40.957C32.5229 41.356 32.0136 41.6889 31.5494 41.9558C31.0852 42.2227 30.5254 42.5275 29.8699 42.8703C29.2172 43.2158 28.511 43.5361 27.7514 43.8311C26.9918 44.1261 26.19 44.4 25.346 44.6529C24.502 44.9057 23.6861 45.1024 22.8984 45.2428C22.1107 45.3833 21.2174 45.5027 20.2187 45.6011L18.7206 45.7486V45.7696H15.9776V45.7486L15.6189 45.7275C15.3797 45.7134 15.1828 45.6994 15.0281 45.6853C14.8733 45.6713 14.2895 45.594 13.2767 45.4536C12.2639 45.3131 11.4692 45.1726 10.8924 45.0321C10.3157 44.8917 9.45763 44.6248 8.31822 44.2314C7.17882 43.8381 6.20399 43.4406 5.39375 43.0388C4.58633 42.6399 4.07993 42.387 3.87454 42.2803C3.67198 42.1763 3.4441 42.0471 3.1909 41.8926L2.8111 41.6608L2.8027 41.6481L2.79 41.6397L2.77734 41.6313L2.7689 41.6186L2.7267 41.5976L2.6845 41.5765L2.6761 41.5639L2.6634 41.5554L2.65074 41.547L2.6423 41.5344L2.6339 41.5217L2.6212 41.5133H2.6001V41.429L2.6423 41.4374L2.6845 41.4501L2.8744 41.4712C3.001 41.4852 3.34565 41.5063 3.9083 41.5344C4.471 41.5625 5.06881 41.5625 5.70181 41.5344C6.33481 41.5063 6.98191 41.443 7.64302 41.3447C8.30417 41.2464 9.08487 41.0778 9.98513 40.839C10.8854 40.6002 11.7126 40.3165 12.4665 39.9878C13.2177 39.6563 13.7522 39.409 14.0701 39.2461C14.3852 39.0859 14.8663 38.7881 15.5134 38.3527L16.484 37.6995L16.4924 37.6868L16.5051 37.6784L16.5178 37.67L16.5262 37.6573L16.5346 37.6447L16.5473 37.6362L16.56 37.6278L16.5684 37.6152L16.6106 37.6025L16.6528 37.5941L16.6612 37.552L16.6739 37.5098L16.6866 37.5014L16.695 37.4887L16.3574 37.4677C16.1323 37.4536 15.9143 37.4396 15.7033 37.4255C15.4923 37.4115 15.1617 37.3483 14.7115 37.2359C14.2614 37.1235 13.7761 36.9549 13.2556 36.7302C12.7352 36.5055 12.2288 36.2385 11.7364 35.9295C11.2441 35.6205 10.8882 35.3634 10.6688 35.1583C10.4522 34.956 10.1708 34.6695 9.82477 34.2986C9.48155 33.925 9.18333 33.5414 8.93012 33.1481C8.67692 32.7548 8.43499 32.301 8.20432 31.787L7.85402 31.02L7.83292 30.9568L7.81182 30.8935L7.79916 30.8514L7.79072 30.8093L7.85402 30.8177L7.91732 30.8303L8.38152 30.8935C8.69102 30.9357 9.17632 30.9497 9.83743 30.9357C10.4986 30.9217 10.9557 30.8935 11.2089 30.8514C11.4621 30.8093 11.6169 30.7812 11.6731 30.7671L11.7575 30.746L11.863 30.725L11.9685 30.7039L11.977 30.6913L11.9896 30.6828L12.0023 30.6744L12.0107 30.6618L11.9263 30.6407L11.8419 30.6196L11.7575 30.5986L11.6731 30.5775L11.5887 30.5564C11.5325 30.5424 11.434 30.5143 11.2933 30.4721C11.1527 30.43 10.7729 30.2755 10.1539 30.0086C9.53502 29.7417 9.04267 29.4818 8.67692 29.2289C8.31027 28.9754 7.96066 28.698 7.63036 28.3987C7.3012 28.0953 6.93971 27.7048 6.54581 27.2272C6.15196 26.7496 5.80031 26.1947 5.49081 25.5626C5.18136 24.9305 4.94925 24.3265 4.79451 23.7505C4.64038 23.1779 4.5387 22.5926 4.49071 22.0016L4.41471 21.1166L4.45691 21.1251L4.49911 21.1377L4.54131 21.1588L4.58351 21.1798L4.62571 21.2009L4.66791 21.222L5.32201 21.517C5.75811 21.7137 6.29966 21.8822 6.94672 22.0227C7.59381 22.1631 7.98062 22.2404 8.10722 22.2545L8.29712 22.2755H8.67692L8.66853 22.2629L8.65582 22.2545L8.64316 22.246L8.63472 22.2334L8.62633 22.2208L8.61362 22.2123L8.60096 22.2039L8.59252 22.1913L8.55032 22.1702L8.50812 22.1491L8.49972 22.1365L8.48702 22.128L8.47436 22.1196L8.46592 22.107L8.42372 22.0859L8.38152 22.0648L8.37312 22.0522C8.36468 22.0465 8.2437 21.9566 8.01016 21.7825C7.77945 21.6055 7.53752 21.3765 7.28432 21.0956C7.03112 20.8146 6.77792 20.5196 6.52471 20.2106C6.27105 19.9008 6.04511 19.5695 5.84951 19.2202C5.65261 18.8691 5.44439 18.4223 5.22495 17.8801C5.00834 17.3407 4.84375 16.7971 4.73121 16.2492C4.6187 15.7014 4.5554 15.1606 4.54131 14.6268C4.52725 14.093 4.54131 13.6365 4.58351 13.2572C4.62571 12.8779 4.71011 12.4494 4.83671 11.9718C4.96331 11.4943 5.1462 10.9886 5.38531 10.4547L5.74401 9.65405L5.76511 9.59083L5.78621 9.52762L5.79891 9.51919L5.80731 9.50655L5.81575 9.49391L5.82841 9.48548L5.84111 9.49391L5.84951 9.50655L5.85795 9.51919L5.87061 9.52762L5.88331 9.53605L5.89171 9.54869L5.90015 9.56133L5.91281 9.56976L5.93391 9.6119L5.95501 9.65405L5.96771 9.66248L5.97611 9.67512L6.54581 10.3072C6.92562 10.7287 7.37577 11.1993 7.89622 11.719C8.41672 12.2387 8.70507 12.5084 8.76132 12.5281C8.81762 12.5506 8.88792 12.6152 8.97232 12.722C9.05672 12.8259 9.33807 13.0746 9.81633 13.4679C10.2946 13.8612 10.9206 14.3178 11.6942 14.8375C12.4679 15.3572 13.326 15.87 14.2684 16.3757C15.2109 16.8814 16.2237 17.3379 17.3069 17.7453C18.39 18.1527 19.1496 18.4196 19.5857 18.546C20.0218 18.6724 20.7673 18.8339 21.8223 19.0306C22.8773 19.2273 23.6721 19.3537 24.2066 19.4099C24.7411 19.4661 25.1069 19.4984 25.3038 19.5068L25.5992 19.5152L25.5908 19.452L25.5781 19.3888L25.4937 18.862C25.4374 18.5109 25.4093 18.0192 25.4093 17.3871C25.4093 16.755 25.4585 16.172 25.557 15.6382C25.6555 15.1044 25.8032 14.5636 26.0001 14.0157C26.197 13.4679 26.3898 13.0282 26.5782 12.6967C26.7696 12.368 27.0199 11.9929 27.3294 11.5715C27.6389 11.1501 28.0398 10.7146 28.5321 10.2651C29.0245 9.81558 29.5871 9.41523 30.2201 9.06406C30.8531 8.71289 31.4369 8.44597 31.9714 8.26337C32.506 8.08076 32.9561 7.96133 33.3218 7.90516C33.6876 7.84898 33.8704 7.81666 33.8704 7.80823V7.80823Z" fill="#0E181E"/>
</svg>
